<?xml version="1.0" encoding="UTF-8" standalone="no"?>
<!DOCTYPE svg PUBLIC "-//W3C//DTD SVG 1.1//EN" "http://www.w3.org/Graphics/SVG/1.1/DTD/svg11.dtd">
<svg width="100%" height="100%" viewBox="0 0 1055 1072" version="1.1" xmlns="http://www.w3.org/2000/svg" xmlns:xlink="http://www.w3.org/1999/xlink" xml:space="preserve" xmlns:serif="http://www.serif.com/" style="fill-rule:evenodd;clip-rule:evenodd;stroke-linejoin:round;stroke-miterlimit:2;">
    <g transform="matrix(1,0,0,1,-4839.52,-823.32)">
        <g transform="matrix(7.90825,0,0,7.90825,621.846,-733.434)">
            <g transform="matrix(1.17545,0,0,1.17545,172.031,-126.608)">
                <g transform="matrix(1,0,0,1,418.062,338.737)">
                    <path d="M0,-11.857L-1.612,-12.521C-3.447,-13.28 -4.806,-14.67 -5.69,-16.694C-6.577,-18.716 -7.019,-21.247 -7.019,-24.282C-7.019,-28.517 -7.54,-32.264 -8.584,-35.521C-9.627,-38.777 -11.113,-41.497 -13.042,-43.678C-14.971,-45.859 -17.278,-47.503 -19.965,-48.61C-22.08,-49.479 -24.387,-49.996 -26.871,-50.181L-26.871,-50.27L-42.646,-50.27C-44.067,-50.27 -45.22,-49.118 -45.22,-47.696L-45.22,-41.405C-45.22,-39.983 -44.067,-38.831 -42.646,-38.831L-27.993,-38.831C-25.352,-38.554 -23.289,-37.094 -21.814,-34.43C-20.171,-31.458 -19.349,-27.033 -19.349,-21.152C-19.349,-18.876 -19.145,-16.899 -18.732,-15.224C-18.321,-13.547 -17.77,-12.109 -17.072,-10.909C-16.377,-9.706 -15.618,-8.711 -14.796,-7.92C-13.976,-7.129 -13.121,-6.451 -12.235,-5.881C-13.121,-5.312 -13.976,-4.632 -14.796,-3.842C-15.618,-3.05 -16.377,-2.055 -17.072,-0.854C-17.77,0.347 -18.321,1.787 -18.732,3.461C-19.145,5.137 -19.349,7.113 -19.349,9.389C-19.349,15.269 -20.171,19.68 -21.814,22.621C-23.46,25.56 -25.831,27.031 -28.928,27.031C-29.625,27.031 -30.225,27.283 -30.73,27.789C-31.237,28.294 -31.489,28.895 -31.489,29.591L-31.489,35.851C-31.489,36.546 -31.237,37.147 -30.73,37.654C-30.225,38.159 -29.625,38.413 -28.928,38.413C-25.642,38.413 -22.653,37.858 -19.965,36.752C-17.278,35.646 -14.971,34.002 -13.042,31.821C-11.113,29.639 -9.627,26.936 -8.584,23.711C-7.54,20.486 -7.019,16.755 -7.019,12.519C-7.019,9.484 -6.577,6.955 -5.69,4.931C-4.806,2.909 -3.447,1.517 -1.612,0.758L0,0.094C1.833,-0.727 2.751,-1.898 2.751,-3.415L2.751,-8.347C2.751,-9.865 1.833,-11.034 0,-11.857" style="fill:white;fill-rule:nonzero;"/>
                </g>
                <g transform="matrix(1,0,0,1,310.119,326.881)">
                    <path d="M0,11.855L1.612,12.519C3.447,13.278 4.807,14.668 5.691,16.693C6.577,18.715 7.019,21.245 7.019,24.281C7.019,28.516 7.541,32.262 8.584,35.519C9.627,38.775 11.114,41.495 13.042,43.676C14.972,45.858 17.279,47.501 19.966,48.609C22.08,49.478 24.387,49.994 26.871,50.18L26.871,50.269L42.646,50.269C44.068,50.269 45.221,49.116 45.221,47.695L45.221,41.403C45.221,39.982 44.068,38.829 42.646,38.829L27.993,38.829C25.353,38.553 23.29,37.092 21.815,34.428C20.172,31.457 19.349,27.031 19.349,21.151C19.349,18.874 19.145,16.897 18.732,15.222C18.322,13.546 17.77,12.108 17.073,10.907C16.378,9.705 15.619,8.709 14.796,7.919C13.976,7.127 13.122,6.449 12.235,5.879C13.122,5.311 13.976,4.63 14.796,3.84C15.619,3.049 16.378,2.053 17.073,0.853C17.77,-0.348 18.322,-1.788 18.732,-3.462C19.145,-5.139 19.349,-7.114 19.349,-9.39C19.349,-15.271 20.172,-19.681 21.815,-22.622C23.46,-25.562 25.831,-27.033 28.929,-27.033C29.625,-27.033 30.225,-27.284 30.73,-27.791C31.237,-28.296 31.489,-28.896 31.489,-29.593L31.489,-35.853C31.489,-36.547 31.237,-37.148 30.73,-37.656C30.225,-38.16 29.625,-38.414 28.929,-38.414C25.642,-38.414 22.654,-37.859 19.966,-36.753C17.279,-35.647 14.972,-34.003 13.042,-31.822C11.114,-29.64 9.627,-26.937 8.584,-23.712C7.541,-20.488 7.019,-16.757 7.019,-12.52C7.019,-9.486 6.577,-6.957 5.691,-4.933C4.807,-2.91 3.447,-1.518 1.612,-0.759L0,-0.095C-1.833,0.726 -2.75,1.896 -2.75,3.414L-2.75,8.346C-2.75,9.864 -1.833,11.033 0,11.855" style="fill:white;fill-rule:nonzero;"/>
                </g>
                <g transform="matrix(1,0,0,1,366.385,288.468)">
                    <path d="M0,11.439L-5.5,11.439C-7.14,11.439 -8.47,10.11 -8.47,8.469L-8.47,2.97C-8.47,1.33 -7.14,0 -5.5,0L0,0C1.64,0 2.97,1.33 2.97,2.97L2.97,8.469C2.97,10.11 1.64,11.439 0,11.439" style="fill:rgb(0,204,0);fill-rule:nonzero;"/>
                </g>
                <g transform="matrix(1,0,0,1,353.098,275.18)">
                    <path d="M0,11.439L-5.5,11.439C-7.14,11.439 -8.47,10.109 -8.47,8.469L-8.47,2.969C-8.47,1.33 -7.14,0 -5.5,0L0,0C1.64,0 2.97,1.33 2.97,2.969L2.97,8.469C2.97,10.109 1.64,11.439 0,11.439" style="fill:rgb(0,204,0);fill-rule:nonzero;"/>
                </g>
                <g transform="matrix(1,0,0,1,361.876,377.148)">
                    <path d="M0,-11.439L5.499,-11.439C7.14,-11.439 8.469,-10.109 8.469,-8.468L8.469,-2.969C8.469,-1.329 7.14,0 5.499,0L0,0C-1.641,0 -2.971,-1.329 -2.971,-2.969L-2.971,-8.468C-2.971,-10.109 -1.641,-11.439 0,-11.439" style="fill:rgb(0,204,0);fill-rule:nonzero;"/>
                </g>
                <g transform="matrix(1,0,0,1,375.163,390.436)">
                    <path d="M0,-11.44L5.499,-11.44C7.14,-11.44 8.47,-10.11 8.47,-8.469L8.47,-2.97C8.47,-1.33 7.14,0 5.499,0L0,0C-1.641,0 -2.971,-1.33 -2.971,-2.97L-2.971,-8.469C-2.971,-10.11 -1.641,-11.44 0,-11.44" style="fill:rgb(0,204,0);fill-rule:nonzero;"/>
                </g>
            </g>
        </g>
    </g>
</svg>
