<?xml version="1.0" encoding="UTF-8" standalone="no"?>
<!DOCTYPE svg PUBLIC "-//W3C//DTD SVG 1.1//EN" "http://www.w3.org/Graphics/SVG/1.1/DTD/svg11.dtd">
<svg width="100%" height="100%" viewBox="0 0 373 435" version="1.1" xmlns="http://www.w3.org/2000/svg" xmlns:xlink="http://www.w3.org/1999/xlink" xml:space="preserve" xmlns:serif="http://www.serif.com/" style="fill-rule:evenodd;clip-rule:evenodd;stroke-linejoin:round;stroke-miterlimit:2;">
    <g transform="matrix(1,0,0,1,-188.716,-65.5125)">
        <g id="BACKGROUND">
        </g>
        <g id="OBJECTS">
            <g transform="matrix(0.968902,0,0,0.968902,11.6613,35.1765)">
                <g transform="matrix(249.989,420.436,420.436,-249.989,271.413,-18.1954)">
                    <path d="M0.492,-0.014L0.49,-0.018L0.491,-0.024C0.491,-0.024 0.493,-0.025 0.493,-0.025C0.493,-0.025 0.493,-0.026 0.493,-0.027C0.493,-0.027 0.492,-0.03 0.492,-0.03C0.492,-0.03 0.492,-0.031 0.493,-0.031L0.494,-0.03C0.494,-0.03 0.495,-0.029 0.496,-0.028C0.496,-0.027 0.496,-0.026 0.496,-0.025C0.496,-0.025 0.496,-0.023 0.496,-0.023L0.495,-0.022L0.496,-0.02C0.496,-0.02 0.497,-0.018 0.497,-0.018C0.497,-0.018 0.497,-0.015 0.497,-0.015L0.498,-0.013C0.498,-0.013 0.498,-0.011 0.499,-0.01C0.499,-0.01 0.501,-0.011 0.501,-0.011C0.501,-0.011 0.502,-0.012 0.503,-0.011C0.504,-0.01 0.506,-0.006 0.506,-0.006L0.506,-0.003C0.506,-0.003 0.51,0 0.51,0C0.51,0 0.512,0.001 0.512,0.001L0.515,0.002L0.519,0.006L0.521,0.005L0.523,0.005L0.525,0.007L0.528,0.013L0.529,0.013L0.531,0.013L0.531,0.008C0.532,0.007 0.533,0.006 0.533,0.006L0.535,0.008L0.535,0.011C0.535,0.011 0.535,0.013 0.536,0.013C0.536,0.014 0.537,0.016 0.539,0.017C0.54,0.019 0.541,0.02 0.542,0.022C0.543,0.023 0.545,0.024 0.544,0.025C0.544,0.026 0.544,0.027 0.544,0.028C0.544,0.029 0.544,0.031 0.544,0.031L0.542,0.031L0.539,0.029L0.536,0.025C0.536,0.025 0.535,0.025 0.535,0.026C0.534,0.026 0.533,0.026 0.533,0.026L0.53,0.024L0.527,0.02L0.523,0.018L0.518,0.016C0.518,0.016 0.515,0.015 0.515,0.014C0.514,0.014 0.513,0.012 0.513,0.012C0.513,0.012 0.511,0.009 0.511,0.009C0.51,0.009 0.507,0.006 0.506,0.006C0.506,0.005 0.503,0.004 0.502,0.003C0.502,0.002 0.499,-0.002 0.499,-0.002L0.497,-0.004L0.494,-0.008L0.492,-0.014Z" style="fill:rgb(218,218,218);fill-rule:nonzero;"/>
                </g>
                <g transform="matrix(249.992,420.44,420.44,-249.992,273.869,-19.6592)">
                    <path d="M0.542,-0.006C0.542,-0.007 0.542,-0.008 0.542,-0.008L0.542,-0.01C0.542,-0.01 0.544,-0.008 0.544,-0.008C0.545,-0.008 0.547,-0.007 0.547,-0.007C0.548,-0.007 0.549,-0.005 0.549,-0.005C0.549,-0.004 0.55,-0.003 0.55,-0.002C0.55,-0.001 0.551,0.001 0.551,0.001L0.554,0.004L0.554,0.006C0.554,0.006 0.554,0.008 0.554,0.009C0.553,0.009 0.552,0.01 0.552,0.01L0.55,0.007L0.549,0.003L0.548,0.001L0.545,-0.002L0.543,-0.004C0.543,-0.004 0.542,-0.005 0.542,-0.006Z" style="fill:rgb(218,218,218);fill-rule:nonzero;"/>
                </g>
                <g transform="matrix(249.989,420.436,420.436,-249.989,288.417,-28.3064)">
                    <path d="M0.556,0.006C0.556,0.004 0.555,-0 0.555,-0L0.553,-0.002L0.552,-0.003L0.549,-0.006L0.549,-0.009C0.549,-0.009 0.549,-0.01 0.55,-0.01C0.551,-0.011 0.551,-0.011 0.552,-0.011C0.552,-0.012 0.551,-0.014 0.551,-0.014C0.551,-0.014 0.551,-0.015 0.552,-0.015C0.553,-0.015 0.553,-0.015 0.554,-0.015C0.555,-0.014 0.556,-0.012 0.556,-0.012L0.557,-0.01C0.557,-0.01 0.557,-0.008 0.558,-0.007C0.559,-0.006 0.559,-0.006 0.56,-0.005C0.561,-0.005 0.561,-0.004 0.561,-0.004C0.561,-0.003 0.561,-0.003 0.562,-0.003C0.563,-0.004 0.563,-0.005 0.563,-0.005L0.563,-0.006C0.563,-0.006 0.563,-0.007 0.562,-0.008L0.558,-0.014C0.558,-0.014 0.558,-0.014 0.557,-0.015C0.556,-0.016 0.555,-0.016 0.555,-0.016L0.554,-0.018C0.555,-0.019 0.555,-0.019 0.555,-0.019L0.556,-0.02L0.559,-0.017C0.559,-0.017 0.562,-0.013 0.562,-0.013C0.562,-0.012 0.563,-0.011 0.564,-0.009C0.565,-0.008 0.567,-0.004 0.567,-0.004L0.569,-0.005C0.569,-0.005 0.571,-0.005 0.571,-0.004C0.571,-0.004 0.572,-0.003 0.573,-0.001C0.573,-0 0.573,0.002 0.573,0.002L0.572,0.005L0.574,0.008C0.574,0.008 0.575,0.011 0.575,0.011C0.575,0.011 0.575,0.012 0.576,0.014C0.577,0.015 0.579,0.016 0.579,0.017C0.579,0.017 0.579,0.018 0.579,0.018C0.579,0.018 0.578,0.018 0.578,0.019C0.578,0.019 0.575,0.02 0.574,0.019C0.574,0.019 0.572,0.017 0.571,0.017C0.57,0.016 0.57,0.014 0.57,0.015C0.569,0.017 0.569,0.017 0.569,0.018C0.568,0.018 0.567,0.019 0.567,0.019C0.567,0.019 0.565,0.017 0.565,0.016C0.564,0.014 0.562,0.012 0.562,0.012L0.558,0.008C0.558,0.008 0.557,0.007 0.557,0.006C0.556,0.006 0.556,0.006 0.556,0.006Z" style="fill:rgb(218,218,218);fill-rule:nonzero;"/>
                </g>
                <g transform="matrix(249.988,420.434,420.434,-249.988,301.681,-36.1912)">
                    <path d="M0.584,-0.003C0.584,-0.003 0.584,-0.005 0.584,-0.005L0.586,-0.004L0.588,-0.003L0.589,-0.001L0.591,0.002L0.591,0.004L0.59,0.005C0.59,0.005 0.589,0.004 0.588,0.003L0.587,0.001L0.586,-0C0.586,-0 0.585,-0.002 0.584,-0.003Z" style="fill:rgb(218,218,218);fill-rule:nonzero;"/>
                </g>
                <g transform="matrix(1,0,0,1,298.224,177.846)">
                    <path d="M0,0.082C-0.004,0.049 -0.006,0.022 -0.009,0C-0.006,0.025 -0.003,0.053 0,0.082" style="fill:rgb(218,218,218);fill-rule:nonzero;stroke:white;stroke-width:1px;"/>
                </g>
                <g transform="matrix(1,0,0,1,268.145,36.3709)">
                    <path d="M0,0.161L0.069,0.087C-0.071,0.078 -0.371,0 -0.371,0L0,0.161Z" style="fill:rgb(218,218,218);fill-rule:nonzero;stroke:white;stroke-width:1px;"/>
                </g>
                <g transform="matrix(1,0,0,1,298.21,177.765)">
                    <path d="M0,0.023C-0.003,0 -0.002,0.004 0,0.023" style="fill:rgb(218,218,218);fill-rule:nonzero;stroke:white;stroke-width:1px;"/>
                </g>
                <g transform="matrix(1,0,0,1,298.215,177.793)">
                    <path d="M0,0.054C-0.002,0.033 -0.004,0.013 -0.005,0C-0.004,0.012 -0.002,0.031 0,0.054" style="fill:rgb(218,218,218);fill-rule:nonzero;stroke:white;stroke-width:1px;"/>
                </g>
                <g transform="matrix(249.99,420.438,420.438,-249.99,204.024,21.8727)">
                    <path d="M0.061,0.063L0.062,0.057L0.059,0.052L0.057,0.05L0.057,0.048C0.057,0.048 0.057,0.048 0.057,0.046C0.057,0.045 0.056,0.043 0.056,0.043L0.055,0.041C0.055,0.041 0.054,0.042 0.054,0.04C0.054,0.039 0.054,0.039 0.054,0.039C0.053,0.038 0.055,0.039 0.054,0.037C0.053,0.036 0.052,0.035 0.052,0.035C0.052,0.035 0.051,0.036 0.051,0.033C0.051,0.031 0.052,0.03 0.052,0.03C0.052,0.029 0.05,0.025 0.05,0.025C0.05,0.025 0.05,0.023 0.05,0.022C0.049,0.02 0.047,0.017 0.047,0.017L0.043,0.008L0.043,0.004L0.042,0C0.042,0 0.044,0.001 0.046,0.003C0.047,0.004 0.048,0.004 0.048,0.004L0.051,0.003C0.051,0.003 0.053,0.002 0.053,0.002C0.054,0.002 0.055,0.002 0.055,0.002L0.057,0.004L0.058,0.004L0.058,0.001L0.057,0L0.056,-0L0.053,-0.001L0.051,-0.002C0.051,-0.002 0.051,-0.002 0.051,-0.002C0.052,-0.003 0.053,-0.003 0.054,-0.004C0.055,-0.004 0.056,-0.003 0.056,-0.004C0.056,-0.005 0.055,-0.007 0.055,-0.007C0.055,-0.007 0.053,-0.01 0.053,-0.01C0.052,-0.011 0.051,-0.013 0.051,-0.013L0.049,-0.013L0.047,-0.016L0.044,-0.026L0.041,-0.032C0.041,-0.032 0.041,-0.032 0.042,-0.033C0.043,-0.034 0.044,-0.034 0.045,-0.034C0.046,-0.035 0.046,-0.035 0.047,-0.035C0.047,-0.035 0.05,-0.03 0.05,-0.03L0.053,-0.028L0.055,-0.025L0.054,-0.021C0.054,-0.021 0.055,-0.019 0.055,-0.019C0.056,-0.019 0.056,-0.018 0.056,-0.019C0.057,-0.02 0.057,-0.022 0.057,-0.022C0.057,-0.022 0.057,-0.019 0.058,-0.023C0.058,-0.027 0.058,-0.028 0.058,-0.028C0.058,-0.029 0.056,-0.033 0.056,-0.033L0.053,-0.04C0.053,-0.04 0.05,-0.049 0.05,-0.049C0.05,-0.05 0.05,-0.052 0.05,-0.052L0.051,-0.053L0.05,-0.061C0.05,-0.061 0.05,-0.062 0.05,-0.064C0.051,-0.065 0.051,-0.066 0.052,-0.066C0.053,-0.066 0.055,-0.067 0.055,-0.067C0.056,-0.068 0.055,-0.068 0.055,-0.068C0.055,-0.069 0.054,-0.069 0.056,-0.069C0.059,-0.068 0.058,-0.068 0.058,-0.068C0.058,-0.068 0.059,-0.068 0.059,-0.067C0.059,-0.066 0.06,-0.062 0.06,-0.062C0.06,-0.062 0.058,-0.06 0.06,-0.059C0.061,-0.058 0.061,-0.058 0.062,-0.059C0.062,-0.06 0.063,-0.061 0.062,-0.062C0.062,-0.063 0.063,-0.067 0.063,-0.067L0.064,-0.068L0.065,-0.07L0.064,-0.073C0.064,-0.073 0.064,-0.073 0.064,-0.074C0.065,-0.074 0.064,-0.076 0.065,-0.074C0.066,-0.072 0.067,-0.071 0.067,-0.071C0.067,-0.071 0.067,-0.07 0.067,-0.069C0.067,-0.068 0.067,-0.067 0.067,-0.067L0.067,-0.065C0.067,-0.065 0.068,-0.063 0.07,-0.063C0.071,-0.064 0.071,-0.064 0.072,-0.064C0.072,-0.064 0.072,-0.064 0.072,-0.064L0.074,-0.062L0.074,-0.061L0.074,-0.059L0.075,-0.056L0.076,-0.056L0.077,-0.06L0.075,-0.069C0.075,-0.069 0.075,-0.074 0.075,-0.076C0.075,-0.078 0.075,-0.082 0.075,-0.082C0.075,-0.082 0.074,-0.088 0.074,-0.088C0.074,-0.088 0.073,-0.089 0.074,-0.089C0.075,-0.09 0.075,-0.089 0.075,-0.091C0.076,-0.092 0.076,-0.096 0.078,-0.095L0.08,-0.088C0.08,-0.088 0.079,-0.084 0.079,-0.083C0.079,-0.082 0.08,-0.08 0.08,-0.08L0.08,-0.076L0.083,-0.068L0.082,-0.062L0.086,-0.048C0.086,-0.048 0.087,-0.046 0.086,-0.046C0.086,-0.046 0.085,-0.044 0.085,-0.044L0.086,-0.04L0.083,-0.036L0.085,-0.028L0.086,-0.02L0.087,-0.011L0.089,-0.006L0.09,-0.005L0.09,-0.009L0.089,-0.017L0.089,-0.02L0.091,-0.021C0.091,-0.022 0.091,-0.024 0.091,-0.024L0.092,-0.024L0.094,-0.021L0.094,-0.018L0.095,-0.014C0.095,-0.014 0.094,-0.012 0.095,-0.009C0.097,-0.006 0.097,-0.005 0.097,-0.005L0.094,-0.003L0.095,0.001L0.096,0.003L0.101,0.008L0.104,0.01L0.114,0.024L0.093,0.097L0.092,0.097C0.092,0.097 0.093,0.097 0.093,0.098L0.093,0.098C0.092,0.098 0.092,0.097 0.09,0.096C0.086,0.093 0.088,0.09 0.088,0.089C0.088,0.089 0.086,0.087 0.086,0.087L0.084,0.085L0.081,0.082L0.078,0.079C0.078,0.079 0.075,0.076 0.075,0.076C0.074,0.075 0.074,0.074 0.073,0.072C0.073,0.072 0.073,0.071 0.073,0.071C0.073,0.071 0.073,0.071 0.072,0.071C0.071,0.07 0.069,0.071 0.069,0.071L0.068,0.071C0.068,0.071 0.066,0.07 0.066,0.069C0.066,0.069 0.065,0.068 0.065,0.068L0.064,0.067L0.064,0.067L0.061,0.063Z" style="fill:rgb(218,218,218);fill-rule:nonzero;"/>
                </g>
                <g transform="matrix(1,0,0,1,268.257,36.4622)">
                    <path d="M0,-0.05L-0.043,-0.004C0.022,0 0.052,-0.01 0,-0.05" style="fill:rgb(218,218,218);fill-rule:nonzero;stroke:white;stroke-width:1px;"/>
                </g>
                <g transform="matrix(1,0,0,1,298.23,177.928)">
                    <path d="M0,0.066C-0.002,0.045 -0.004,0.023 -0.006,0C-0.004,0.021 -0.002,0.041 0,0.066" style="fill:rgb(218,218,218);fill-rule:nonzero;stroke:white;stroke-width:1px;"/>
                </g>
                <g transform="matrix(1,0,0,1,298.24,178.034)">
                    <path d="M0,0.055C-0.001,0.044 -0.003,0.025 -0.006,0C-0.004,0.018 -0.002,0.034 0,0.055" style="fill:rgb(218,218,218);fill-rule:nonzero;stroke:white;stroke-width:1px;"/>
                </g>
                <g transform="matrix(249.99,420.437,420.437,-249.99,288.179,-28.1656)">
                    <path d="M0.181,0.059C0.18,0.058 0.18,0.056 0.18,0.055C0.18,0.054 0.179,0.053 0.179,0.052C0.179,0.052 0.178,0.05 0.178,0.05C0.178,0.05 0.181,0.047 0.181,0.047C0.182,0.047 0.181,0.046 0.182,0.046C0.184,0.046 0.187,0.048 0.187,0.048C0.187,0.048 0.188,0.05 0.189,0.051C0.19,0.052 0.19,0.052 0.19,0.052C0.19,0.052 0.19,0.05 0.19,0.05C0.19,0.049 0.191,0.048 0.191,0.048L0.192,0.049C0.192,0.049 0.193,0.051 0.193,0.051C0.194,0.051 0.194,0.052 0.194,0.051C0.194,0.05 0.194,0.048 0.194,0.048L0.193,0.046C0.193,0.046 0.193,0.046 0.194,0.045C0.194,0.045 0.194,0.044 0.194,0.044L0.194,0.041C0.194,0.041 0.193,0.04 0.194,0.04C0.195,0.04 0.195,0.04 0.195,0.04L0.197,0.041C0.197,0.041 0.197,0.042 0.198,0.04C0.199,0.039 0.2,0.039 0.2,0.038C0.2,0.038 0.2,0.036 0.2,0.036C0.2,0.036 0.198,0.035 0.197,0.035C0.197,0.035 0.197,0.035 0.196,0.036C0.196,0.036 0.195,0.037 0.195,0.037L0.193,0.036C0.193,0.036 0.192,0.034 0.192,0.037L0.192,0.039C0.192,0.039 0.19,0.039 0.189,0.038C0.189,0.037 0.188,0.035 0.188,0.035L0.185,0.033C0.185,0.033 0.185,0.033 0.185,0.033C0.186,0.032 0.187,0.032 0.187,0.032C0.187,0.032 0.189,0.033 0.189,0.032C0.19,0.032 0.189,0.031 0.189,0.031L0.187,0.029C0.187,0.029 0.187,0.032 0.186,0.028C0.185,0.025 0.184,0.022 0.184,0.022L0.182,0.02L0.18,0.018C0.18,0.018 0.18,0.02 0.177,0.016L0.175,0.012L0.173,0.012L0.17,0.01L0.168,0.008C0.168,0.008 0.164,0.002 0.164,0.002C0.164,0.002 0.164,0.001 0.164,0.001C0.163,0.001 0.163,-0 0.163,-0.001C0.164,-0.002 0.165,-0.001 0.165,-0.001L0.167,0.003C0.167,0.003 0.167,0.003 0.168,0.004C0.168,0.005 0.169,0.006 0.169,0.006L0.17,0.005C0.17,0.005 0.169,0.002 0.169,0.001C0.169,0 0.168,-0 0.169,-0.001C0.169,-0.001 0.169,-0.002 0.169,-0.002L0.17,-0.002C0.17,-0.002 0.173,-0.001 0.173,-0.001C0.173,-0.001 0.173,-0.001 0.173,-0.001C0.173,-0.001 0.173,-0.001 0.174,-0.001C0.175,-0.002 0.175,-0.003 0.175,-0.003C0.175,-0.003 0.175,-0.004 0.175,-0.005C0.174,-0.005 0.174,-0.005 0.174,-0.006C0.174,-0.006 0.174,-0.007 0.173,-0.006C0.173,-0.006 0.171,-0.005 0.171,-0.005C0.171,-0.005 0.17,-0.005 0.17,-0.005C0.169,-0.005 0.166,-0.006 0.166,-0.006C0.166,-0.006 0.165,-0.006 0.164,-0.008C0.163,-0.009 0.162,-0.011 0.162,-0.012C0.162,-0.013 0.16,-0.016 0.16,-0.016C0.16,-0.016 0.16,-0.018 0.158,-0.019C0.157,-0.021 0.156,-0.022 0.155,-0.023C0.154,-0.024 0.153,-0.025 0.153,-0.025C0.153,-0.025 0.152,-0.025 0.152,-0.024C0.152,-0.023 0.152,-0.023 0.152,-0.022C0.152,-0.021 0.152,-0.02 0.152,-0.02C0.152,-0.02 0.148,-0.021 0.148,-0.021C0.147,-0.022 0.145,-0.022 0.145,-0.024C0.146,-0.025 0.145,-0.024 0.146,-0.025C0.146,-0.025 0.146,-0.026 0.146,-0.026C0.146,-0.026 0.145,-0.028 0.145,-0.028C0.145,-0.028 0.144,-0.029 0.143,-0.029C0.141,-0.03 0.14,-0.03 0.14,-0.03C0.14,-0.03 0.14,-0.031 0.138,-0.033C0.136,-0.035 0.136,-0.035 0.136,-0.035L0.132,-0.037C0.132,-0.037 0.132,-0.038 0.132,-0.039C0.132,-0.039 0.131,-0.039 0.131,-0.039C0.131,-0.04 0.131,-0.04 0.131,-0.041C0.131,-0.042 0.132,-0.04 0.131,-0.043C0.131,-0.046 0.129,-0.047 0.129,-0.046C0.129,-0.046 0.128,-0.045 0.128,-0.044C0.127,-0.042 0.127,-0.042 0.127,-0.042L0.125,-0.044C0.125,-0.044 0.125,-0.044 0.126,-0.045C0.126,-0.047 0.126,-0.048 0.127,-0.048C0.127,-0.049 0.127,-0.049 0.127,-0.05C0.126,-0.052 0.127,-0.054 0.126,-0.052C0.124,-0.05 0.124,-0.05 0.124,-0.049C0.124,-0.049 0.124,-0.048 0.122,-0.048C0.121,-0.048 0.12,-0.049 0.12,-0.049L0.118,-0.052C0.118,-0.052 0.118,-0.052 0.118,-0.054C0.119,-0.055 0.119,-0.056 0.119,-0.056C0.119,-0.056 0.12,-0.057 0.12,-0.057C0.119,-0.058 0.119,-0.06 0.119,-0.06L0.119,-0.062L0.118,-0.064L0.117,-0.065C0.117,-0.065 0.117,-0.068 0.116,-0.069C0.116,-0.069 0.116,-0.07 0.116,-0.07C0.116,-0.07 0.115,-0.071 0.115,-0.071L0.115,-0.069C0.115,-0.069 0.117,-0.063 0.116,-0.063C0.116,-0.062 0.116,-0.06 0.114,-0.061C0.113,-0.062 0.112,-0.063 0.112,-0.064C0.112,-0.065 0.112,-0.067 0.112,-0.068C0.112,-0.069 0.112,-0.071 0.112,-0.072C0.112,-0.073 0.113,-0.075 0.112,-0.075C0.112,-0.076 0.112,-0.076 0.112,-0.076C0.112,-0.076 0.113,-0.076 0.112,-0.076C0.11,-0.076 0.109,-0.077 0.109,-0.077L0.109,-0.078C0.109,-0.078 0.108,-0.081 0.108,-0.081C0.108,-0.081 0.108,-0.082 0.108,-0.082L0.106,-0.086C0.107,-0.087 0.107,-0.089 0.107,-0.089C0.107,-0.089 0.106,-0.089 0.104,-0.091C0.101,-0.093 0.098,-0.099 0.098,-0.099L0.097,-0.1L0.093,-0.103L0.114,-0.176L0.117,-0.172L0.119,-0.172L0.121,-0.172L0.126,-0.171C0.126,-0.171 0.13,-0.171 0.13,-0.171C0.13,-0.17 0.132,-0.167 0.132,-0.167L0.13,-0.165L0.135,-0.164L0.135,-0.161L0.132,-0.159L0.133,-0.156L0.137,-0.157C0.137,-0.157 0.14,-0.159 0.142,-0.16C0.144,-0.16 0.148,-0.162 0.148,-0.162L0.151,-0.163L0.153,-0.166L0.154,-0.167L0.156,-0.168L0.157,-0.166C0.157,-0.166 0.156,-0.166 0.158,-0.165C0.16,-0.163 0.162,-0.163 0.162,-0.163L0.164,-0.165L0.165,-0.171L0.166,-0.172L0.167,-0.171L0.168,-0.17L0.168,-0.167L0.168,-0.164L0.172,-0.162L0.174,-0.166L0.176,-0.167L0.178,-0.165L0.18,-0.166L0.18,-0.169C0.18,-0.169 0.181,-0.172 0.181,-0.172C0.182,-0.172 0.185,-0.172 0.186,-0.172C0.187,-0.172 0.192,-0.167 0.192,-0.167L0.193,-0.166L0.194,-0.164L0.194,-0.163L0.195,-0.162L0.197,-0.164C0.197,-0.164 0.198,-0.166 0.199,-0.164C0.2,-0.162 0.2,-0.161 0.2,-0.161L0.201,-0.162L0.202,-0.163L0.204,-0.163C0.204,-0.163 0.202,-0.162 0.205,-0.162C0.206,-0.162 0.207,-0.162 0.207,-0.163L0.288,-0.026L0.29,-0.021L0.293,-0.021L0.296,-0.018L0.299,-0.015L0.303,-0.012L0.308,-0.005L0.311,0.001L0.312,0.007C0.312,0.007 0.312,0.008 0.312,0.01C0.313,0.011 0.313,0.013 0.315,0.015C0.317,0.016 0.32,0.019 0.32,0.019L0.322,0.019L0.327,0.02L0.329,0.021L0.333,0.021L0.336,0.019L0.338,0.019C0.338,0.019 0.339,0.019 0.34,0.02C0.341,0.021 0.342,0.024 0.342,0.024L0.348,0.033L0.353,0.038L0.357,0.04C0.357,0.04 0.357,0.043 0.361,0.041C0.364,0.04 0.364,0.039 0.364,0.039C0.364,0.038 0.364,0.036 0.364,0.036L0.359,0.03L0.361,0.027L0.363,0.026L0.363,0.025L0.364,0.023L0.366,0.021C0.366,0.021 0.365,0.017 0.368,0.019C0.37,0.021 0.373,0.025 0.373,0.025L0.378,0.036C0.378,0.036 0.376,0.039 0.374,0.038C0.373,0.037 0.372,0.037 0.372,0.037L0.372,0.039L0.374,0.044L0.379,0.052L0.378,0.055L0.378,0.06L0.378,0.067L0.384,0.081L0.381,0.09L0.38,0.101L0.382,0.103L0.392,0.103C0.392,0.103 0.394,0.105 0.395,0.105C0.396,0.106 0.397,0.107 0.398,0.106C0.399,0.105 0.403,0.105 0.403,0.105L0.403,0.105L0.403,0.106C0.403,0.106 0.402,0.106 0.403,0.11C0.404,0.114 0.404,0.114 0.404,0.114C0.404,0.114 0.405,0.117 0.406,0.117C0.406,0.117 0.407,0.117 0.408,0.116C0.408,0.116 0.407,0.115 0.408,0.116C0.409,0.116 0.41,0.118 0.41,0.118C0.41,0.118 0.412,0.122 0.412,0.123C0.412,0.123 0.413,0.122 0.415,0.126C0.418,0.13 0.419,0.131 0.418,0.133C0.418,0.134 0.418,0.137 0.418,0.137C0.418,0.137 0.416,0.135 0.415,0.134C0.414,0.133 0.412,0.131 0.411,0.13C0.41,0.128 0.408,0.127 0.407,0.127C0.406,0.126 0.4,0.121 0.4,0.121C0.399,0.122 0.398,0.123 0.398,0.123L0.396,0.124C0.396,0.124 0.395,0.119 0.394,0.12C0.393,0.121 0.393,0.119 0.393,0.122C0.392,0.125 0.392,0.126 0.392,0.126L0.39,0.125C0.39,0.125 0.39,0.125 0.39,0.123L0.39,0.121C0.39,0.121 0.389,0.12 0.388,0.12L0.383,0.116C0.383,0.116 0.383,0.117 0.384,0.119C0.385,0.12 0.385,0.121 0.385,0.121L0.388,0.125C0.388,0.125 0.388,0.126 0.387,0.127C0.387,0.127 0.385,0.129 0.384,0.129C0.383,0.129 0.382,0.129 0.381,0.128C0.38,0.126 0.378,0.123 0.377,0.122C0.377,0.121 0.375,0.118 0.375,0.116C0.375,0.115 0.376,0.114 0.375,0.111C0.374,0.107 0.373,0.104 0.374,0.104C0.374,0.103 0.375,0.101 0.375,0.1C0.376,0.099 0.377,0.093 0.377,0.093C0.377,0.093 0.377,0.09 0.377,0.09C0.377,0.089 0.376,0.088 0.376,0.088C0.376,0.088 0.376,0.088 0.376,0.091C0.375,0.094 0.375,0.095 0.374,0.096C0.374,0.098 0.372,0.1 0.372,0.1L0.37,0.102L0.368,0.108C0.368,0.108 0.369,0.11 0.37,0.111C0.37,0.112 0.371,0.113 0.37,0.113C0.37,0.114 0.368,0.116 0.368,0.116C0.368,0.116 0.366,0.116 0.367,0.117C0.367,0.119 0.372,0.129 0.372,0.129C0.372,0.129 0.375,0.131 0.375,0.134C0.375,0.136 0.378,0.14 0.378,0.14L0.38,0.142L0.383,0.145L0.387,0.151L0.387,0.154L0.385,0.16C0.385,0.16 0.383,0.157 0.384,0.161C0.385,0.165 0.387,0.168 0.387,0.168L0.388,0.172L0.387,0.174L0.385,0.174L0.379,0.176L0.376,0.174L0.374,0.17L0.374,0.168C0.374,0.168 0.373,0.167 0.372,0.168C0.372,0.168 0.369,0.169 0.369,0.169C0.369,0.169 0.369,0.167 0.369,0.166C0.369,0.165 0.368,0.164 0.368,0.161C0.368,0.159 0.368,0.156 0.368,0.155C0.368,0.155 0.368,0.154 0.367,0.154C0.366,0.154 0.365,0.154 0.365,0.156C0.365,0.157 0.366,0.161 0.366,0.161C0.366,0.161 0.366,0.165 0.366,0.165C0.366,0.166 0.366,0.167 0.366,0.167L0.365,0.167L0.364,0.167L0.362,0.165L0.36,0.163C0.36,0.163 0.359,0.163 0.359,0.163C0.359,0.163 0.358,0.162 0.358,0.162C0.358,0.162 0.358,0.16 0.358,0.159C0.358,0.158 0.358,0.158 0.358,0.158C0.357,0.158 0.356,0.159 0.356,0.159L0.354,0.158L0.354,0.154L0.352,0.154C0.352,0.154 0.346,0.152 0.345,0.152C0.345,0.152 0.341,0.15 0.34,0.151C0.339,0.151 0.339,0.154 0.338,0.153C0.336,0.152 0.334,0.149 0.334,0.149L0.332,0.151L0.329,0.151L0.328,0.15L0.326,0.15C0.326,0.15 0.325,0.148 0.325,0.147C0.324,0.146 0.324,0.146 0.324,0.146L0.321,0.146L0.32,0.147L0.319,0.146L0.317,0.146L0.314,0.145L0.308,0.145L0.306,0.142C0.306,0.142 0.305,0.142 0.306,0.14C0.307,0.139 0.309,0.138 0.31,0.138C0.311,0.137 0.311,0.138 0.312,0.137C0.313,0.136 0.313,0.133 0.313,0.133C0.313,0.133 0.313,0.131 0.313,0.131C0.313,0.13 0.313,0.13 0.313,0.129C0.313,0.127 0.312,0.126 0.312,0.126L0.31,0.124C0.31,0.124 0.308,0.126 0.307,0.124C0.306,0.121 0.305,0.118 0.305,0.118L0.304,0.118C0.304,0.118 0.302,0.119 0.302,0.12C0.303,0.122 0.303,0.122 0.303,0.123C0.303,0.124 0.302,0.124 0.3,0.124C0.299,0.123 0.298,0.123 0.297,0.123C0.296,0.123 0.296,0.122 0.294,0.122C0.293,0.123 0.292,0.123 0.292,0.123C0.292,0.123 0.291,0.123 0.29,0.121C0.288,0.119 0.288,0.118 0.287,0.118C0.285,0.117 0.284,0.116 0.284,0.116L0.281,0.113C0.281,0.113 0.28,0.113 0.279,0.113C0.278,0.112 0.277,0.112 0.277,0.111C0.276,0.11 0.276,0.108 0.276,0.108L0.274,0.108C0.274,0.108 0.271,0.107 0.27,0.107C0.27,0.106 0.269,0.106 0.27,0.105C0.27,0.104 0.27,0.103 0.27,0.103C0.27,0.103 0.27,0.102 0.27,0.101C0.269,0.101 0.268,0.1 0.267,0.1C0.267,0.1 0.265,0.097 0.265,0.096C0.264,0.096 0.263,0.091 0.263,0.091L0.265,0.09L0.268,0.091C0.268,0.091 0.268,0.092 0.269,0.091C0.269,0.09 0.269,0.09 0.27,0.089C0.27,0.089 0.272,0.088 0.272,0.089C0.273,0.089 0.274,0.089 0.274,0.089C0.275,0.088 0.276,0.089 0.276,0.089L0.277,0.091C0.277,0.091 0.277,0.092 0.278,0.091C0.28,0.09 0.28,0.088 0.28,0.088C0.28,0.088 0.279,0.09 0.28,0.086C0.28,0.082 0.28,0.08 0.28,0.08C0.28,0.08 0.278,0.078 0.28,0.079C0.283,0.08 0.284,0.082 0.284,0.082L0.288,0.085C0.288,0.085 0.29,0.086 0.291,0.086C0.291,0.086 0.293,0.087 0.295,0.087C0.298,0.087 0.297,0.087 0.299,0.087C0.301,0.086 0.304,0.084 0.304,0.084L0.305,0.082L0.305,0.076C0.305,0.076 0.305,0.072 0.305,0.071C0.305,0.07 0.305,0.069 0.305,0.069C0.305,0.069 0.305,0.069 0.306,0.069C0.307,0.069 0.31,0.068 0.31,0.068C0.31,0.068 0.31,0.068 0.311,0.067C0.311,0.066 0.31,0.065 0.312,0.065C0.314,0.064 0.316,0.065 0.316,0.065L0.32,0.066L0.324,0.064C0.324,0.064 0.325,0.065 0.325,0.064C0.325,0.062 0.325,0.062 0.325,0.062L0.324,0.06C0.324,0.06 0.322,0.058 0.322,0.057C0.321,0.056 0.32,0.053 0.32,0.053C0.32,0.053 0.318,0.053 0.318,0.053C0.317,0.053 0.314,0.053 0.314,0.053L0.311,0.05L0.31,0.05L0.307,0.049L0.304,0.046L0.304,0.048L0.304,0.05C0.304,0.05 0.304,0.051 0.302,0.051C0.3,0.052 0.3,0.052 0.299,0.052C0.297,0.052 0.297,0.051 0.297,0.052C0.296,0.052 0.295,0.052 0.295,0.053C0.295,0.055 0.294,0.056 0.294,0.056C0.294,0.056 0.292,0.057 0.291,0.056C0.29,0.055 0.291,0.056 0.29,0.054C0.288,0.051 0.288,0.051 0.287,0.048C0.286,0.046 0.286,0.046 0.285,0.044C0.284,0.043 0.281,0.04 0.281,0.04L0.278,0.038C0.278,0.038 0.278,0.039 0.275,0.037C0.272,0.035 0.271,0.033 0.271,0.033C0.271,0.033 0.271,0.033 0.269,0.033C0.268,0.032 0.265,0.031 0.265,0.031L0.26,0.025L0.257,0.021L0.256,0.019L0.254,0.018L0.252,0.018L0.25,0.019L0.247,0.02L0.242,0.015L0.241,0.014L0.238,0.014L0.237,0.018L0.235,0.02L0.232,0.021L0.23,0.023C0.23,0.023 0.23,0.026 0.23,0.029C0.23,0.032 0.23,0.037 0.23,0.037C0.23,0.037 0.228,0.044 0.228,0.044C0.228,0.045 0.225,0.043 0.225,0.043L0.221,0.038L0.218,0.035L0.216,0.032L0.213,0.028L0.212,0.028C0.212,0.028 0.209,0.027 0.212,0.031C0.215,0.034 0.214,0.032 0.215,0.035C0.217,0.037 0.22,0.041 0.22,0.041L0.222,0.044L0.224,0.045C0.224,0.045 0.226,0.047 0.227,0.047C0.227,0.048 0.226,0.049 0.226,0.049L0.225,0.05L0.223,0.052L0.225,0.053C0.225,0.053 0.225,0.053 0.226,0.054C0.227,0.054 0.227,0.054 0.227,0.054C0.227,0.054 0.228,0.056 0.228,0.056L0.228,0.062L0.227,0.064L0.226,0.063C0.226,0.063 0.226,0.064 0.225,0.062C0.223,0.061 0.221,0.057 0.221,0.057L0.221,0.055L0.219,0.055L0.217,0.056C0.217,0.056 0.216,0.056 0.218,0.058C0.219,0.059 0.221,0.061 0.221,0.061L0.223,0.063L0.225,0.067L0.224,0.068L0.224,0.069C0.224,0.069 0.222,0.068 0.221,0.068C0.221,0.068 0.22,0.067 0.22,0.069C0.22,0.07 0.221,0.071 0.221,0.071L0.223,0.072C0.223,0.072 0.224,0.073 0.225,0.074C0.226,0.075 0.226,0.076 0.226,0.076C0.226,0.076 0.224,0.077 0.223,0.076C0.222,0.075 0.219,0.073 0.22,0.076C0.221,0.078 0.22,0.08 0.222,0.08C0.223,0.08 0.225,0.079 0.225,0.079L0.227,0.08C0.227,0.08 0.228,0.08 0.228,0.082C0.229,0.085 0.228,0.09 0.228,0.091C0.228,0.091 0.228,0.092 0.227,0.092C0.226,0.092 0.223,0.091 0.223,0.091L0.221,0.091C0.221,0.091 0.22,0.091 0.22,0.092C0.22,0.093 0.218,0.094 0.218,0.094L0.216,0.094L0.212,0.09L0.21,0.087C0.21,0.087 0.208,0.085 0.207,0.084C0.207,0.084 0.207,0.083 0.207,0.083C0.207,0.083 0.208,0.082 0.208,0.082C0.208,0.082 0.21,0.082 0.21,0.082C0.211,0.081 0.212,0.081 0.212,0.08C0.213,0.078 0.212,0.075 0.212,0.074C0.213,0.073 0.216,0.069 0.216,0.069C0.216,0.069 0.217,0.07 0.216,0.069C0.215,0.067 0.214,0.066 0.214,0.066L0.21,0.066L0.208,0.067L0.207,0.069L0.204,0.07L0.201,0.068C0.201,0.068 0.2,0.067 0.201,0.067C0.201,0.066 0.201,0.067 0.202,0.066C0.203,0.064 0.205,0.062 0.205,0.062C0.205,0.062 0.205,0.06 0.204,0.06C0.202,0.06 0.202,0.059 0.201,0.06L0.198,0.061C0.198,0.061 0.197,0.062 0.196,0.062C0.195,0.062 0.194,0.061 0.194,0.061C0.193,0.06 0.192,0.06 0.192,0.06C0.192,0.06 0.191,0.062 0.191,0.063C0.191,0.063 0.184,0.062 0.184,0.062C0.183,0.062 0.181,0.061 0.181,0.06C0.181,0.059 0.181,0.059 0.181,0.059Z" style="fill:rgb(218,218,218);fill-rule:nonzero;"/>
                </g>
                <g transform="matrix(25.3889,15.0575,15.0575,-25.3889,354.692,205.134)">
                    <path d="M0.406,0.019L0.409,0.021L0.432,0.006L0.55,-0.162L0.575,-0.155C0.576,-0.146 0.579,-0.135 0.583,-0.124C0.594,-0.099 0.601,-0.078 0.601,-0.078L0.566,-0.009L0.493,0.094L0.472,0.149C0.472,0.149 0.47,0.155 0.469,0.162L0.406,0.019Z" style="fill:rgb(218,218,218);fill-rule:nonzero;stroke:white;stroke-width:0.03px;"/>
                </g>
                <g transform="matrix(249.991,420.439,420.439,-249.991,233.982,4.05882)">
                    <path d="M0.501,0.015L0.494,0.004L0.495,0.003L0.496,0.002C0.496,0.002 0.497,0.002 0.496,0.001C0.496,-0 0.496,-0.001 0.496,-0.001L0.497,-0.001L0.504,0.002L0.506,0.002L0.508,0.001C0.508,0.001 0.508,-0.001 0.508,-0.002C0.508,-0.003 0.505,-0.006 0.505,-0.006L0.508,-0.013L0.509,-0.015L0.509,-0.016C0.51,-0.016 0.512,-0.016 0.512,-0.016C0.514,-0.016 0.515,-0.017 0.518,-0.015C0.521,-0.014 0.523,-0.012 0.524,-0.011C0.524,-0.01 0.524,-0.009 0.525,-0.008C0.525,-0.007 0.525,-0.007 0.526,-0.007L0.525,-0.006L0.525,-0L0.523,0.001L0.524,0.004L0.522,0.005L0.52,0.006L0.521,0.011L0.519,0.017L0.518,0.017L0.518,0.014L0.517,0.01L0.515,0.009C0.515,0.009 0.515,0.01 0.514,0.01L0.513,0.009L0.502,0.015L0.501,0.015Z" style="fill:rgb(218,218,218);fill-rule:nonzero;"/>
                </g>
                <g transform="matrix(249.987,420.433,420.433,-249.987,234.567,3.71488)">
                    <path d="M0.525,-0.001L0.525,-0.002L0.525,-0.007L0.526,-0.009C0.527,-0.007 0.529,-0.006 0.529,-0.006L0.532,-0.005L0.537,0.001C0.537,0.001 0.537,0.002 0.538,0.004C0.538,0.005 0.538,0.005 0.538,0.006L0.536,0.007L0.534,0.009L0.532,0.008L0.531,0.006L0.531,0.004L0.529,0.003L0.528,0.004L0.525,-0.001Z" style="fill:rgb(218,218,218);fill-rule:nonzero;"/>
                </g>
                <g transform="matrix(249.99,420.437,420.437,-249.99,243.084,-1.35288)">
                    <path d="M0.526,0.006L0.52,-0.004L0.519,-0.005L0.521,-0.011L0.52,-0.015L0.522,-0.017L0.524,-0.018L0.523,-0.02L0.525,-0.022L0.528,-0.017L0.529,-0.017L0.531,-0.016L0.531,-0.015L0.532,-0.013L0.534,-0.012L0.536,-0.013L0.538,-0.014C0.539,-0.013 0.54,-0.012 0.54,-0.012C0.541,-0.012 0.542,-0.012 0.543,-0.013L0.543,-0.012L0.543,-0.01L0.541,-0.008L0.539,-0.007L0.539,-0.005L0.542,0C0.542,0 0.542,0.002 0.542,0.003C0.543,0.004 0.543,0.005 0.543,0.005L0.542,0.008L0.541,0.011L0.543,0.016L0.542,0.021L0.541,0.022L0.539,0.019L0.537,0.019L0.533,0.017L0.529,0.011L0.526,0.008L0.526,0.006Z" style="fill:rgb(218,218,218);fill-rule:nonzero;"/>
                </g>
                <g transform="matrix(249.989,420.436,420.436,-249.989,244.507,-2.19755)">
                    <path d="M0.543,0.013L0.541,0.007L0.542,0.004L0.543,0.001C0.543,0.001 0.543,0 0.542,-0.001C0.542,-0.002 0.542,-0.003 0.542,-0.003L0.539,-0.008L0.539,-0.01L0.541,-0.011L0.543,-0.013L0.543,-0.016L0.543,-0.016C0.543,-0.016 0.544,-0.016 0.544,-0.016C0.544,-0.017 0.548,-0.018 0.548,-0.018L0.552,-0.017C0.552,-0.017 0.554,-0.017 0.558,-0.016C0.559,-0.016 0.56,-0.016 0.561,-0.017L0.561,-0.015C0.561,-0.015 0.563,-0.013 0.563,-0.013C0.563,-0.013 0.565,-0.012 0.565,-0.011C0.566,-0.01 0.566,-0.009 0.567,-0.009C0.567,-0.008 0.566,-0.007 0.566,-0.007L0.567,-0.004L0.57,-0.002C0.57,-0.002 0.569,-0.002 0.569,-0.002L0.568,0.001C0.568,0.001 0.568,0.003 0.566,0.003C0.564,0.003 0.559,0.003 0.559,0.003L0.559,0.004C0.559,0.004 0.561,0.005 0.561,0.006C0.561,0.007 0.561,0.007 0.561,0.007C0.56,0.008 0.558,0.009 0.558,0.009L0.553,0.009C0.553,0.009 0.55,0.01 0.55,0.012C0.55,0.014 0.55,0.015 0.55,0.015L0.547,0.017L0.542,0.018L0.543,0.013Z" style="fill:rgb(218,218,218);fill-rule:nonzero;"/>
                </g>
                <g transform="matrix(249.989,420.437,420.437,-249.989,240.555,0.152254)">
                    <path d="M0.566,0.003C0.566,0.003 0.567,0.001 0.567,0.001C0.566,0 0.566,-0.001 0.565,-0.002C0.565,-0.003 0.563,-0.003 0.563,-0.003C0.563,-0.003 0.561,-0.006 0.561,-0.006L0.561,-0.007C0.563,-0.007 0.563,-0.007 0.563,-0.007L0.565,-0.009C0.565,-0.009 0.565,-0.011 0.567,-0.01C0.569,-0.009 0.571,-0.008 0.571,-0.008L0.573,-0.006C0.573,-0.006 0.571,-0.004 0.572,-0.004C0.572,-0.003 0.573,-0.002 0.573,-0.002C0.573,-0.002 0.575,-0.002 0.576,-0.002C0.576,-0.002 0.579,-0.001 0.579,-0.001L0.582,-0L0.585,-0.002L0.587,-0.002C0.587,-0.002 0.587,-0.001 0.587,-0C0.587,0 0.586,0.001 0.587,0.001C0.587,0.001 0.589,0.001 0.589,0.001C0.59,0.001 0.59,-0.001 0.591,0.001L0.592,0.002L0.591,0.003L0.59,0.004L0.588,0.006L0.583,0.007L0.583,0.008L0.585,0.011C0.584,0.011 0.583,0.011 0.582,0.01C0.581,0.01 0.579,0.009 0.577,0.008C0.575,0.007 0.574,0.006 0.573,0.006C0.572,0.006 0.571,0.007 0.57,0.007L0.567,0.005L0.566,0.003Z" style="fill:rgb(218,218,218);fill-rule:nonzero;"/>
                </g>
                <g transform="matrix(249.991,420.439,420.439,-249.991,249.604,-5.23035)">
                    <path d="M0.583,-0.013L0.583,-0.014L0.588,-0.016L0.59,-0.018L0.591,-0.019L0.592,-0.019L0.594,-0.016C0.595,-0.015 0.598,-0.011 0.598,-0.011C0.598,-0.011 0.599,-0.011 0.6,-0.01C0.601,-0.01 0.602,-0.008 0.602,-0.008L0.605,-0.008C0.605,-0.008 0.608,-0.006 0.608,-0.006C0.608,-0.005 0.608,-0.004 0.608,-0.004C0.607,-0.003 0.606,-0.003 0.605,-0.003C0.604,-0.003 0.602,-0.003 0.602,-0.002C0.602,-0.001 0.602,-0.001 0.603,0C0.603,0.001 0.603,0.002 0.603,0.002C0.603,0.002 0.601,0.003 0.601,0.003C0.601,0.003 0.6,0.003 0.6,0.004C0.6,0.006 0.601,0.008 0.601,0.008C0.602,0.009 0.604,0.01 0.604,0.011C0.605,0.011 0.606,0.012 0.607,0.012C0.607,0.012 0.608,0.012 0.609,0.012C0.609,0.012 0.61,0.011 0.61,0.011C0.61,0.011 0.612,0.009 0.613,0.01C0.613,0.01 0.616,0.009 0.618,0.009L0.618,0.01L0.616,0.012C0.616,0.012 0.616,0.013 0.616,0.014C0.617,0.015 0.618,0.016 0.618,0.016C0.618,0.016 0.617,0.016 0.617,0.016C0.616,0.017 0.616,0.017 0.615,0.017C0.615,0.017 0.614,0.018 0.614,0.018L0.612,0.018L0.612,0.019C0.611,0.019 0.61,0.019 0.609,0.019C0.607,0.018 0.605,0.018 0.604,0.018C0.603,0.017 0.601,0.016 0.601,0.016L0.597,0.009L0.597,0.007C0.597,0.007 0.596,0.004 0.596,0.002C0.596,-0.001 0.596,-0.002 0.595,-0.003L0.59,-0.011C0.59,-0.011 0.589,-0.01 0.587,-0.01C0.586,-0.01 0.585,-0.01 0.585,-0.01L0.583,-0.013Z" style="fill:rgb(218,218,218);fill-rule:nonzero;"/>
                </g>
                <g transform="matrix(249.99,420.438,420.438,-249.99,286.463,-27.1453)">
                    <path d="M0.615,-0.011C0.616,-0.011 0.617,-0.012 0.618,-0.013C0.619,-0.013 0.619,-0.016 0.619,-0.016L0.619,-0.02L0.62,-0.021C0.62,-0.021 0.622,-0.023 0.623,-0.023C0.623,-0.023 0.624,-0.024 0.626,-0.024C0.627,-0.024 0.628,-0.024 0.628,-0.024C0.628,-0.024 0.629,-0.023 0.63,-0.024C0.63,-0.025 0.631,-0.026 0.631,-0.026C0.631,-0.026 0.631,-0.03 0.63,-0.03C0.63,-0.03 0.626,-0.032 0.626,-0.032L0.623,-0.03C0.623,-0.03 0.623,-0.029 0.622,-0.028C0.622,-0.027 0.619,-0.025 0.619,-0.025C0.618,-0.025 0.616,-0.025 0.616,-0.025C0.616,-0.025 0.613,-0.025 0.614,-0.023C0.614,-0.022 0.614,-0.021 0.614,-0.02L0.614,-0.021L0.613,-0.022L0.613,-0.024L0.613,-0.027L0.614,-0.028L0.616,-0.03L0.621,-0.037C0.621,-0.037 0.623,-0.039 0.623,-0.039C0.623,-0.039 0.624,-0.04 0.624,-0.04L0.625,-0.041L0.628,-0.039L0.632,-0.038L0.635,-0.039L0.637,-0.041L0.641,-0.042L0.643,-0.041C0.643,-0.041 0.646,-0.038 0.646,-0.037L0.652,-0.029C0.652,-0.029 0.654,-0.029 0.655,-0.029C0.655,-0.029 0.657,-0.028 0.658,-0.028C0.658,-0.028 0.661,-0.026 0.661,-0.026C0.661,-0.026 0.662,-0.025 0.663,-0.024C0.663,-0.023 0.665,-0.019 0.665,-0.019C0.666,-0.018 0.666,-0.016 0.666,-0.016L0.666,-0.016L0.669,-0.017L0.672,-0.022L0.676,-0.026L0.678,-0.027L0.682,-0.026L0.684,-0.027L0.685,-0.028L0.685,-0.031L0.687,-0.033L0.69,-0.03L0.694,-0.028L0.696,-0.029L0.702,-0.031L0.706,-0.031L0.709,-0.029L0.71,-0.025C0.71,-0.025 0.712,-0.021 0.712,-0.018C0.712,-0.015 0.712,-0.011 0.712,-0.011C0.712,-0.011 0.71,-0.008 0.71,-0.007C0.711,-0.005 0.711,-0.005 0.711,-0.004C0.711,-0.004 0.71,-0.003 0.71,-0.003L0.709,-0.003L0.706,-0.007L0.704,-0.007L0.702,-0.006C0.702,-0.006 0.702,-0.006 0.699,-0.005C0.696,-0.004 0.697,-0.003 0.696,-0.004C0.695,-0.004 0.692,-0.005 0.692,-0.005C0.693,-0.003 0.694,-0.001 0.694,-0.001L0.697,0.002L0.7,0.006L0.699,0.01C0.699,0.01 0.7,0.013 0.7,0.014C0.701,0.015 0.702,0.021 0.702,0.021L0.702,0.024L0.701,0.025L0.7,0.026L0.697,0.026L0.691,0.026L0.689,0.027L0.687,0.033L0.686,0.034L0.683,0.035L0.682,0.037L0.682,0.041L0.681,0.042C0.681,0.042 0.681,0.041 0.681,0.041L0.679,0.038L0.676,0.039L0.674,0.041L0.669,0.039L0.665,0.037L0.663,0.034L0.661,0.032L0.657,0.031C0.657,0.031 0.657,0.032 0.657,0.033C0.657,0.034 0.657,0.034 0.657,0.034C0.657,0.035 0.657,0.036 0.657,0.036L0.654,0.035L0.651,0.029L0.65,0.025L0.647,0.022C0.647,0.022 0.647,0.021 0.647,0.021C0.647,0.02 0.648,0.019 0.648,0.018C0.648,0.018 0.648,0.016 0.648,0.016L0.646,0.012C0.646,0.012 0.643,0.011 0.642,0.011C0.642,0.011 0.641,0.01 0.641,0.01L0.637,0.005L0.637,0.002L0.635,-0.002C0.635,-0.002 0.635,-0.004 0.633,-0.003C0.631,-0.003 0.629,-0.002 0.629,-0.002L0.626,-0.003L0.623,-0.007L0.62,-0.008C0.62,-0.008 0.618,-0.008 0.618,-0.008C0.617,-0.008 0.615,-0.009 0.615,-0.009C0.615,-0.009 0.615,-0.011 0.615,-0.011Z" style="fill:rgb(218,218,218);fill-rule:nonzero;"/>
                </g>
                <g transform="matrix(249.989,420.437,420.437,-249.989,260.006,-11.414)">
                    <path d="M0.607,0.041L0.607,0.039L0.608,0.038L0.609,0.035C0.609,0.035 0.61,0.033 0.61,0.03C0.609,0.028 0.609,0.026 0.609,0.026C0.609,0.026 0.608,0.024 0.607,0.024C0.607,0.023 0.607,0.022 0.607,0.022L0.607,0.02L0.605,0.019L0.604,0.02L0.603,0.018L0.603,0.016L0.605,0.014L0.607,0.01L0.611,0.009L0.611,0.007L0.611,0.004L0.613,0.002L0.614,0L0.613,-0.002L0.615,-0.003C0.615,-0.003 0.617,-0.003 0.617,-0.003C0.618,-0.004 0.618,-0.005 0.618,-0.005L0.617,-0.006L0.615,-0.006C0.615,-0.006 0.614,-0.005 0.613,-0.005C0.613,-0.005 0.612,-0.005 0.612,-0.005L0.612,-0.006L0.614,-0.007C0.614,-0.007 0.615,-0.007 0.615,-0.008C0.616,-0.008 0.616,-0.008 0.617,-0.008C0.617,-0.009 0.618,-0.009 0.618,-0.009C0.618,-0.009 0.617,-0.01 0.616,-0.011C0.616,-0.012 0.616,-0.013 0.616,-0.013L0.618,-0.015L0.618,-0.016C0.618,-0.016 0.619,-0.016 0.619,-0.016C0.619,-0.016 0.619,-0.015 0.62,-0.016C0.622,-0.017 0.622,-0.017 0.623,-0.016C0.623,-0.016 0.623,-0.015 0.624,-0.015C0.626,-0.015 0.629,-0.016 0.629,-0.016C0.63,-0.016 0.634,-0.019 0.635,-0.019C0.635,-0.02 0.637,-0.02 0.638,-0.022C0.639,-0.024 0.639,-0.025 0.64,-0.025C0.64,-0.025 0.643,-0.025 0.643,-0.025L0.645,-0.024L0.646,-0.027C0.646,-0.027 0.644,-0.029 0.646,-0.03C0.647,-0.032 0.648,-0.032 0.648,-0.033C0.648,-0.033 0.647,-0.036 0.647,-0.036C0.647,-0.036 0.646,-0.038 0.646,-0.039C0.647,-0.04 0.647,-0.041 0.648,-0.042C0.649,-0.042 0.651,-0.042 0.651,-0.042C0.651,-0.042 0.652,-0.041 0.653,-0.042C0.653,-0.043 0.653,-0.043 0.653,-0.044C0.653,-0.045 0.652,-0.045 0.653,-0.046C0.655,-0.047 0.656,-0.047 0.656,-0.047L0.662,-0.044C0.662,-0.044 0.663,-0.043 0.663,-0.043C0.664,-0.044 0.665,-0.042 0.666,-0.042C0.666,-0.042 0.669,-0.041 0.669,-0.041L0.671,-0.039L0.673,-0.037L0.674,-0.036L0.674,-0.034L0.674,-0.033L0.676,-0.031L0.682,-0.028L0.684,-0.025C0.684,-0.025 0.686,-0.024 0.687,-0.024C0.687,-0.024 0.69,-0.025 0.69,-0.025C0.69,-0.025 0.691,-0.024 0.692,-0.024C0.693,-0.023 0.696,-0.022 0.696,-0.022L0.698,-0.022L0.7,-0.023L0.702,-0.024L0.704,-0.023C0.704,-0.023 0.704,-0.022 0.704,-0.022C0.704,-0.021 0.706,-0.018 0.706,-0.018L0.706,-0.016C0.706,-0.016 0.708,-0.014 0.709,-0.013C0.709,-0.013 0.712,-0.009 0.712,-0.009L0.714,-0.007L0.716,-0.007L0.722,-0.015L0.724,-0.013L0.729,-0.011L0.721,-0.004L0.711,0.004C0.711,0.004 0.709,0.004 0.709,0.005C0.708,0.005 0.705,0.006 0.705,0.006C0.705,0.006 0.703,0.007 0.703,0.007C0.703,0.007 0.701,0.006 0.701,0.006L0.699,0.006L0.697,0.007C0.697,0.007 0.697,0.008 0.697,0.009C0.697,0.01 0.698,0.012 0.698,0.012L0.698,0.013L0.696,0.015L0.695,0.015L0.693,0.013L0.692,0.012L0.69,0.012C0.69,0.012 0.689,0.014 0.689,0.015C0.689,0.015 0.691,0.019 0.691,0.02C0.691,0.02 0.693,0.023 0.693,0.023C0.693,0.023 0.693,0.025 0.693,0.025C0.693,0.026 0.694,0.026 0.694,0.026L0.695,0.028L0.695,0.029L0.695,0.03C0.695,0.03 0.697,0.03 0.698,0.03C0.698,0.03 0.7,0.03 0.7,0.029C0.701,0.029 0.702,0.027 0.702,0.027C0.702,0.027 0.704,0.03 0.704,0.03C0.704,0.03 0.704,0.031 0.704,0.032L0.702,0.031L0.696,0.034L0.694,0.034L0.69,0.033L0.687,0.03L0.685,0.032L0.685,0.035L0.684,0.036L0.682,0.037L0.678,0.036L0.676,0.037L0.672,0.041L0.669,0.046L0.666,0.047L0.666,0.047C0.666,0.047 0.666,0.045 0.665,0.044C0.665,0.043 0.663,0.04 0.663,0.039C0.662,0.038 0.661,0.037 0.661,0.037C0.661,0.037 0.658,0.035 0.658,0.035C0.657,0.035 0.655,0.034 0.655,0.034C0.654,0.034 0.652,0.034 0.652,0.034L0.646,0.026C0.646,0.025 0.643,0.022 0.643,0.022L0.641,0.021L0.637,0.022L0.635,0.024L0.632,0.025L0.628,0.024L0.625,0.022L0.624,0.023C0.624,0.023 0.623,0.024 0.623,0.024C0.623,0.024 0.621,0.025 0.621,0.026L0.616,0.033L0.614,0.035L0.613,0.036L0.613,0.039L0.613,0.041L0.614,0.042L0.614,0.043C0.614,0.043 0.614,0.043 0.614,0.044C0.614,0.044 0.614,0.045 0.614,0.045L0.612,0.046L0.608,0.045L0.607,0.041Z" style="fill:rgb(218,218,218);fill-rule:nonzero;"/>
                </g>
                <g transform="matrix(249.989,420.436,420.436,-249.989,237.843,1.76335)">
                    <path d="M0.658,0.003C0.658,0.003 0.658,0 0.658,0C0.658,0 0.658,-0.001 0.657,-0.001C0.656,-0.001 0.656,-0.002 0.656,-0.002C0.656,-0.002 0.655,-0.003 0.655,-0.004C0.656,-0.005 0.656,-0.005 0.657,-0.006C0.658,-0.007 0.659,-0.009 0.659,-0.009L0.662,-0.012L0.663,-0.016L0.67,-0.02C0.67,-0.02 0.67,-0.021 0.671,-0.022C0.673,-0.022 0.674,-0.022 0.674,-0.022L0.676,-0.02C0.676,-0.02 0.676,-0.018 0.676,-0.017C0.676,-0.016 0.677,-0.015 0.677,-0.015C0.678,-0.015 0.68,-0.016 0.68,-0.016C0.68,-0.016 0.681,-0.019 0.68,-0.02C0.68,-0.02 0.68,-0.02 0.68,-0.02L0.681,-0.021L0.683,-0.021L0.684,-0.024L0.685,-0.025L0.688,-0.024L0.69,-0.02L0.693,-0.019L0.695,-0.019L0.695,-0.017L0.692,-0.011L0.688,-0.006L0.69,-0.001L0.692,0.005L0.693,0.011C0.693,0.011 0.691,0.017 0.691,0.018C0.691,0.018 0.688,0.022 0.688,0.022L0.684,0.024L0.681,0.025L0.676,0.022L0.674,0.019L0.674,0.019L0.674,0.017L0.673,0.016L0.671,0.013L0.669,0.011C0.669,0.011 0.666,0.011 0.666,0.011C0.665,0.01 0.664,0.009 0.663,0.009C0.663,0.009 0.662,0.009 0.662,0.009L0.656,0.006C0.657,0.005 0.658,0.004 0.658,0.003Z" style="fill:rgb(218,218,218);fill-rule:nonzero;"/>
                </g>
                <g transform="matrix(249.99,420.437,420.437,-249.99,238.67,1.27218)">
                    <path d="M0.684,0.022L0.688,0.02C0.688,0.02 0.691,0.016 0.691,0.016C0.691,0.015 0.693,0.009 0.693,0.009L0.692,0.003L0.69,-0.003L0.688,-0.008L0.692,-0.013L0.695,-0.019L0.695,-0.021L0.693,-0.021L0.69,-0.022L0.688,-0.026L0.685,-0.027L0.684,-0.026L0.683,-0.023L0.681,-0.023L0.68,-0.022C0.68,-0.024 0.68,-0.028 0.68,-0.03C0.68,-0.031 0.679,-0.034 0.682,-0.035C0.684,-0.037 0.687,-0.037 0.687,-0.037C0.687,-0.036 0.688,-0.036 0.689,-0.036C0.69,-0.036 0.692,-0.036 0.692,-0.036C0.693,-0.036 0.695,-0.037 0.694,-0.037C0.694,-0.038 0.694,-0.039 0.694,-0.04C0.694,-0.04 0.694,-0.041 0.695,-0.041C0.696,-0.042 0.701,-0.039 0.701,-0.039L0.704,-0.037L0.709,-0.035C0.709,-0.035 0.715,-0.036 0.716,-0.036C0.717,-0.036 0.718,-0.035 0.719,-0.035C0.72,-0.035 0.724,-0.035 0.724,-0.035C0.724,-0.035 0.74,-0.038 0.74,-0.038C0.74,-0.038 0.744,-0.04 0.745,-0.04C0.745,-0.04 0.749,-0.039 0.749,-0.039C0.75,-0.039 0.753,-0.04 0.753,-0.04C0.754,-0.04 0.755,-0.042 0.756,-0.041C0.756,-0.041 0.761,-0.039 0.761,-0.039C0.761,-0.039 0.765,-0.039 0.765,-0.04C0.766,-0.041 0.766,-0.041 0.766,-0.042C0.766,-0.042 0.767,-0.044 0.767,-0.044C0.767,-0.044 0.771,-0.044 0.771,-0.044C0.772,-0.044 0.781,-0.042 0.781,-0.042L0.788,-0.038L0.795,-0.032L0.804,-0.029L0.811,-0.028L0.818,-0.025C0.818,-0.025 0.818,-0.025 0.819,-0.026L0.819,-0.023L0.818,-0.018L0.817,-0.016L0.815,-0.014L0.813,-0.011L0.813,-0.005L0.813,-0.003L0.808,-0.003L0.804,-0.004L0.801,-0.002L0.8,0.001L0.797,0.004L0.794,0.006L0.79,0.008L0.788,0.012L0.786,0.014L0.776,0.014L0.773,0.013L0.77,0.01C0.77,0.01 0.769,0.01 0.768,0.011C0.767,0.011 0.766,0.012 0.766,0.012C0.766,0.012 0.764,0.014 0.763,0.014C0.763,0.014 0.761,0.013 0.761,0.013C0.761,0.013 0.759,0.01 0.759,0.009C0.76,0.008 0.76,0.006 0.76,0.006C0.76,0.006 0.761,0.005 0.76,0.005C0.759,0.005 0.756,0.004 0.756,0.004L0.752,0.003L0.75,0L0.749,0.001L0.747,0.001L0.742,0.002C0.742,0.002 0.736,0.002 0.735,0.002C0.734,0.002 0.732,0.003 0.731,0.003C0.73,0.003 0.729,0.006 0.729,0.006L0.729,0.009L0.728,0.011L0.725,0.014L0.72,0.02L0.721,0.024L0.723,0.028L0.723,0.033L0.725,0.035L0.728,0.037L0.727,0.039L0.724,0.038L0.722,0.036L0.716,0.044L0.714,0.043L0.712,0.042C0.712,0.042 0.709,0.038 0.709,0.038C0.708,0.037 0.706,0.035 0.706,0.035L0.706,0.032C0.706,0.032 0.704,0.03 0.704,0.029C0.704,0.028 0.704,0.028 0.704,0.028L0.702,0.026L0.7,0.027L0.698,0.029L0.696,0.029C0.696,0.029 0.693,0.027 0.692,0.027C0.691,0.027 0.69,0.026 0.69,0.026C0.69,0.026 0.687,0.027 0.687,0.027C0.686,0.027 0.684,0.026 0.684,0.026L0.682,0.023L0.681,0.023L0.684,0.022Z" style="fill:rgb(218,218,218);fill-rule:nonzero;"/>
                </g>
                <g transform="matrix(249.99,420.438,420.438,-249.99,300.79,-35.6641)">
                    <path d="M0.681,0.008L0.682,0.007L0.682,0.003L0.683,0.001L0.686,-0L0.687,-0.001L0.689,-0.007L0.691,-0.009L0.697,-0.008L0.7,-0.008L0.7,-0.008L0.701,-0.006L0.705,-0.005C0.705,-0.005 0.707,-0.005 0.707,-0.005C0.707,-0.005 0.709,-0.005 0.709,-0.005L0.712,-0.006L0.715,-0.009L0.716,-0.012L0.72,-0.013C0.72,-0.013 0.722,-0.014 0.723,-0.015L0.727,-0.017L0.73,-0.016L0.733,-0.013L0.735,-0.01L0.736,-0.005L0.736,-0.002L0.737,0.002L0.738,0.004L0.734,0.004L0.73,0.005C0.73,0.005 0.727,0.006 0.726,0.006C0.725,0.006 0.723,0.006 0.723,0.006L0.72,0.005L0.718,0.005L0.715,0.007L0.714,0.008L0.714,0.01L0.713,0.013L0.711,0.014L0.709,0.016L0.708,0.017C0.708,0.017 0.707,0.017 0.707,0.017C0.705,0.017 0.702,0.016 0.702,0.016L0.7,0.013C0.7,0.013 0.698,0.011 0.697,0.011C0.697,0.012 0.693,0.013 0.692,0.013C0.691,0.013 0.689,0.014 0.688,0.013C0.686,0.013 0.683,0.012 0.682,0.011C0.682,0.011 0.682,0.011 0.682,0.011C0.682,0.011 0.682,0.009 0.681,0.008Z" style="fill:rgb(218,218,218);fill-rule:nonzero;"/>
                </g>
                <g transform="matrix(249.99,420.437,420.437,-249.99,308.931,-40.5036)">
                    <path d="M0.709,-0.003L0.711,-0.005L0.713,-0.007L0.714,-0.009L0.714,-0.011L0.715,-0.013L0.718,-0.015L0.72,-0.015L0.723,-0.014C0.723,-0.014 0.725,-0.013 0.726,-0.013C0.727,-0.013 0.73,-0.014 0.73,-0.014L0.734,-0.015L0.738,-0.016L0.74,-0.013L0.74,-0.013L0.738,-0.011L0.738,-0.01L0.739,-0.007L0.741,-0.004L0.742,-0.003L0.744,0L0.742,0.005L0.74,0.007L0.738,0.007L0.735,0.009L0.734,0.01L0.731,0.01L0.728,0.011L0.724,0.015L0.723,0.016C0.722,0.015 0.721,0.014 0.72,0.014C0.72,0.013 0.718,0.01 0.718,0.01L0.717,0.006L0.713,0L0.711,-0L0.709,-0.001C0.709,-0.001 0.709,-0.002 0.708,-0.003L0.709,-0.003Z" style="fill:rgb(218,218,218);fill-rule:nonzero;"/>
                </g>
                <g transform="matrix(249.988,420.435,420.435,-249.988,314.729,-43.9501)">
                    <path d="M0.724,0.001L0.728,-0.003L0.731,-0.004L0.734,-0.003L0.735,-0.005L0.738,-0.007L0.74,-0.007L0.742,-0.009L0.744,-0.013L0.744,-0.013C0.744,-0.013 0.746,-0.013 0.747,-0.012C0.748,-0.011 0.751,-0.008 0.751,-0.008L0.752,-0.005L0.751,-0.003C0.751,-0.003 0.75,-0.001 0.75,0C0.749,0.002 0.746,0.006 0.746,0.006L0.746,0.008L0.742,0.013L0.74,0.011L0.737,0.01L0.732,0.01L0.728,0.007C0.728,0.007 0.728,0.004 0.726,0.003C0.725,0.003 0.724,0.002 0.723,0.002L0.724,0.001Z" style="fill:rgb(218,218,218);fill-rule:nonzero;"/>
                </g>
                <g transform="matrix(249.99,420.437,420.437,-249.99,292.803,-30.915)">
                    <path d="M0.701,0.01L0.702,0.009L0.702,0.006C0.702,0.006 0.701,0 0.7,-0.001C0.7,-0.002 0.699,-0.005 0.699,-0.005L0.7,-0.009L0.697,-0.013L0.694,-0.016C0.694,-0.016 0.693,-0.018 0.692,-0.02C0.692,-0.02 0.695,-0.019 0.696,-0.019C0.697,-0.018 0.696,-0.019 0.699,-0.02C0.702,-0.021 0.702,-0.021 0.702,-0.021L0.704,-0.022L0.706,-0.022L0.709,-0.018L0.71,-0.018C0.71,-0.018 0.711,-0.019 0.711,-0.019C0.711,-0.02 0.711,-0.02 0.71,-0.022C0.71,-0.023 0.712,-0.026 0.712,-0.026C0.712,-0.026 0.712,-0.03 0.712,-0.033C0.712,-0.036 0.711,-0.04 0.711,-0.04L0.709,-0.044L0.706,-0.046L0.704,-0.046C0.704,-0.047 0.704,-0.048 0.704,-0.048C0.704,-0.049 0.702,-0.051 0.702,-0.051C0.702,-0.051 0.701,-0.049 0.7,-0.049C0.7,-0.048 0.698,-0.048 0.698,-0.048C0.697,-0.048 0.695,-0.048 0.695,-0.048L0.695,-0.049L0.695,-0.05L0.694,-0.052C0.694,-0.052 0.693,-0.052 0.693,-0.053C0.693,-0.053 0.693,-0.055 0.693,-0.055C0.693,-0.055 0.691,-0.058 0.691,-0.058C0.691,-0.059 0.689,-0.063 0.689,-0.063C0.689,-0.064 0.69,-0.066 0.69,-0.066L0.692,-0.066L0.693,-0.065L0.695,-0.063L0.696,-0.063L0.698,-0.065L0.698,-0.066C0.698,-0.066 0.697,-0.068 0.697,-0.069C0.697,-0.07 0.697,-0.071 0.697,-0.071L0.699,-0.072L0.701,-0.072C0.701,-0.072 0.703,-0.071 0.703,-0.071C0.703,-0.071 0.705,-0.072 0.705,-0.072C0.705,-0.072 0.708,-0.073 0.709,-0.073C0.709,-0.074 0.711,-0.074 0.711,-0.074L0.721,-0.082L0.729,-0.089L0.727,-0.09L0.728,-0.092L0.725,-0.094L0.723,-0.095L0.723,-0.1L0.721,-0.105L0.72,-0.109L0.725,-0.115L0.728,-0.117L0.729,-0.12L0.729,-0.123C0.729,-0.123 0.73,-0.125 0.731,-0.126C0.732,-0.126 0.734,-0.127 0.735,-0.127C0.736,-0.127 0.742,-0.127 0.742,-0.127L0.747,-0.127L0.749,-0.128L0.75,-0.128L0.752,-0.126L0.756,-0.125C0.756,-0.125 0.759,-0.124 0.76,-0.124C0.761,-0.124 0.76,-0.123 0.76,-0.123C0.76,-0.123 0.76,-0.12 0.759,-0.119C0.759,-0.118 0.761,-0.115 0.761,-0.115C0.761,-0.115 0.763,-0.114 0.763,-0.115C0.764,-0.115 0.766,-0.117 0.766,-0.117C0.766,-0.117 0.767,-0.118 0.768,-0.118C0.769,-0.119 0.77,-0.118 0.77,-0.118L0.773,-0.116L0.774,-0.115L0.775,-0.115L0.775,-0.112L0.778,-0.107L0.779,-0.103C0.779,-0.103 0.778,-0.101 0.778,-0.1C0.778,-0.099 0.779,-0.098 0.779,-0.098L0.777,-0.092L0.777,-0.09L0.778,-0.087L0.781,-0.081L0.785,-0.083C0.785,-0.083 0.788,-0.084 0.788,-0.085C0.789,-0.085 0.794,-0.088 0.794,-0.088L0.801,-0.089L0.804,-0.087L0.809,-0.081L0.814,-0.077L0.82,-0.077L0.824,-0.071L0.824,-0.071L0.827,-0.071L0.83,-0.072L0.834,-0.072C0.834,-0.072 0.837,-0.076 0.837,-0.076C0.838,-0.076 0.842,-0.078 0.842,-0.078L0.844,-0.079L0.846,-0.077L0.85,-0.071L0.852,-0.07C0.852,-0.07 0.854,-0.069 0.855,-0.07C0.857,-0.071 0.858,-0.071 0.858,-0.071C0.859,-0.071 0.861,-0.072 0.862,-0.072C0.863,-0.072 0.864,-0.072 0.864,-0.072L0.869,-0.076L0.872,-0.079L0.875,-0.079L0.876,-0.08L0.877,-0.083L0.885,-0.087L0.886,-0.089C0.886,-0.089 0.888,-0.091 0.888,-0.091C0.889,-0.091 0.89,-0.091 0.89,-0.091L0.893,-0.088L0.897,-0.081C0.897,-0.081 0.9,-0.08 0.9,-0.081C0.901,-0.081 0.901,-0.081 0.902,-0.081L0.907,-0.084L0.908,-0.084L0.91,-0.082C0.91,-0.082 0.911,-0.081 0.912,-0.08C0.913,-0.08 0.917,-0.082 0.917,-0.082C0.917,-0.082 0.92,-0.083 0.92,-0.084C0.92,-0.084 0.921,-0.086 0.921,-0.086L0.924,-0.086L0.926,-0.086L0.93,-0.088L0.934,-0.092L0.934,-0.096L0.933,-0.101L0.934,-0.104L0.935,-0.114L0.936,-0.116L0.936,-0.125L0.936,-0.128L0.938,-0.129L0.942,-0.126L0.946,-0.125L0.952,-0.121C0.952,-0.121 0.958,-0.119 0.959,-0.119C0.96,-0.12 0.967,-0.118 0.97,-0.117C0.969,-0.116 0.969,-0.115 0.969,-0.114C0.968,-0.108 0.968,-0.107 0.968,-0.105C0.968,-0.103 0.967,-0.1 0.967,-0.098C0.967,-0.095 0.963,-0.092 0.963,-0.089C0.962,-0.087 0.963,-0.084 0.962,-0.08C0.962,-0.077 0.96,-0.066 0.96,-0.066C0.96,-0.066 0.958,-0.062 0.956,-0.061C0.953,-0.059 0.949,-0.058 0.949,-0.058C0.949,-0.058 0.945,-0.062 0.945,-0.055C0.944,-0.047 0.945,-0.047 0.944,-0.046C0.944,-0.044 0.942,-0.039 0.942,-0.037C0.942,-0.036 0.943,-0.037 0.944,-0.033C0.945,-0.032 0.945,-0.031 0.945,-0.03C0.946,-0.029 0.946,-0.029 0.946,-0.027C0.946,-0.024 0.945,-0.02 0.945,-0.02L0.946,-0.011C0.946,-0.011 0.949,-0.007 0.95,-0.005C0.951,-0.004 0.955,-0.003 0.954,0.001C0.952,0.005 0.952,0.006 0.952,0.008C0.952,0.009 0.954,0.009 0.951,0.012C0.949,0.015 0.948,0.015 0.947,0.018C0.947,0.021 0.947,0.022 0.946,0.024C0.945,0.026 0.944,0.026 0.943,0.028C0.942,0.029 0.942,0.032 0.942,0.034C0.941,0.035 0.941,0.036 0.939,0.037C0.937,0.039 0.936,0.038 0.935,0.04C0.934,0.042 0.933,0.045 0.933,0.045C0.933,0.045 0.933,0.046 0.932,0.047C0.932,0.049 0.93,0.051 0.93,0.051L0.928,0.054C0.928,0.054 0.917,0.06 0.916,0.061C0.916,0.061 0.912,0.067 0.912,0.067L0.907,0.071C0.907,0.071 0.905,0.072 0.905,0.074C0.905,0.076 0.905,0.076 0.906,0.076C0.906,0.076 0.907,0.076 0.907,0.078C0.907,0.08 0.906,0.083 0.905,0.084L0.9,0.092C0.9,0.092 0.9,0.095 0.9,0.096C0.9,0.097 0.9,0.1 0.9,0.1L0.894,0.114C0.894,0.114 0.892,0.12 0.891,0.121C0.89,0.122 0.89,0.122 0.888,0.123C0.886,0.123 0.884,0.124 0.884,0.125C0.883,0.126 0.883,0.127 0.882,0.127C0.88,0.127 0.877,0.127 0.877,0.127L0.873,0.129L0.87,0.128L0.866,0.127L0.863,0.123C0.863,0.123 0.862,0.12 0.862,0.12C0.861,0.119 0.858,0.118 0.858,0.118C0.858,0.118 0.854,0.117 0.851,0.117C0.847,0.117 0.844,0.116 0.844,0.116L0.843,0.115L0.838,0.111L0.831,0.101L0.829,0.098L0.826,0.095L0.821,0.091L0.82,0.086L0.821,0.084L0.819,0.082L0.821,0.079C0.821,0.079 0.819,0.077 0.818,0.077C0.818,0.077 0.816,0.077 0.816,0.078C0.815,0.078 0.816,0.081 0.816,0.081L0.816,0.083L0.807,0.085L0.806,0.083L0.806,0.081C0.806,0.081 0.804,0.08 0.803,0.08C0.803,0.08 0.801,0.08 0.801,0.08L0.796,0.075L0.792,0.069L0.79,0.067C0.79,0.067 0.791,0.065 0.791,0.064C0.791,0.064 0.792,0.059 0.792,0.059L0.792,0.057L0.792,0.054L0.788,0.044L0.782,0.039L0.78,0.038L0.778,0.035L0.776,0.039L0.775,0.042L0.773,0.045C0.773,0.045 0.771,0.047 0.771,0.049C0.771,0.051 0.771,0.053 0.771,0.053L0.771,0.059C0.771,0.059 0.771,0.059 0.771,0.059C0.77,0.06 0.769,0.061 0.769,0.062C0.769,0.063 0.767,0.064 0.767,0.064L0.762,0.062L0.757,0.063C0.757,0.063 0.753,0.064 0.752,0.064C0.751,0.064 0.744,0.065 0.744,0.065L0.743,0.066L0.742,0.066L0.746,0.061L0.746,0.058C0.746,0.058 0.749,0.054 0.75,0.052C0.75,0.051 0.751,0.05 0.751,0.05L0.752,0.047L0.751,0.045C0.751,0.045 0.748,0.042 0.747,0.04C0.746,0.039 0.744,0.039 0.744,0.039L0.742,0.036L0.741,0.034L0.739,0.032L0.738,0.028L0.738,0.028L0.74,0.026L0.74,0.025L0.737,0.021L0.736,0.017L0.736,0.014L0.735,0.009L0.733,0.006L0.73,0.003L0.727,0.002L0.723,0.004C0.722,0.005 0.72,0.006 0.72,0.006L0.716,0.007L0.715,0.01L0.712,0.013L0.709,0.014C0.709,0.014 0.707,0.014 0.707,0.014C0.707,0.014 0.705,0.014 0.705,0.014L0.701,0.013L0.7,0.011L0.701,0.01Z" style="fill:rgb(218,218,218);fill-rule:nonzero;"/>
                </g>
                <g transform="matrix(249.99,420.437,420.437,-249.99,245.37,-2.71187)">
                    <path d="M0.778,0.026L0.777,0.023L0.777,0.021L0.779,0.014C0.779,0.014 0.778,0.013 0.778,0.013C0.778,0.012 0.779,0.01 0.779,0.01L0.778,0.006L0.775,0.001L0.775,-0.002L0.774,-0.002L0.776,-0.002L0.786,-0.002L0.788,-0.004L0.79,-0.008L0.794,-0.01L0.797,-0.012L0.8,-0.015L0.801,-0.018L0.804,-0.02L0.808,-0.019L0.813,-0.019L0.813,-0.021L0.813,-0.027L0.815,-0.03L0.816,-0.03L0.821,-0.033L0.825,-0.034L0.828,-0.033L0.83,-0.033L0.833,-0.035L0.836,-0.038C0.836,-0.038 0.838,-0.039 0.839,-0.039C0.839,-0.04 0.842,-0.04 0.842,-0.04L0.847,-0.041L0.853,-0.043L0.855,-0.044L0.857,-0.043L0.859,-0.041L0.857,-0.032L0.856,-0.029L0.856,-0.027L0.856,-0.026L0.857,-0.027C0.857,-0.027 0.859,-0.026 0.859,-0.026L0.861,-0.023L0.863,-0.022L0.864,-0.022L0.866,-0.022L0.868,-0.021L0.868,-0.02L0.867,-0.014L0.871,-0.008C0.871,-0.008 0.871,-0.006 0.871,-0.006C0.87,-0.005 0.87,-0.003 0.87,-0.003L0.866,0.001L0.865,0.004L0.862,0.01L0.862,0.012L0.864,0.015L0.865,0.022L0.867,0.025L0.868,0.027L0.87,0.029L0.877,0.03L0.876,0.033L0.875,0.034L0.872,0.034L0.869,0.037L0.864,0.041C0.864,0.041 0.863,0.041 0.862,0.041C0.861,0.041 0.859,0.041 0.858,0.042C0.858,0.042 0.857,0.042 0.855,0.043C0.854,0.044 0.852,0.043 0.852,0.043L0.85,0.041L0.846,0.036L0.844,0.034L0.842,0.035C0.842,0.035 0.838,0.037 0.837,0.037C0.837,0.037 0.834,0.041 0.834,0.041L0.83,0.041L0.827,0.042L0.824,0.042L0.824,0.041L0.82,0.036L0.814,0.036L0.809,0.032L0.804,0.026L0.801,0.024L0.794,0.025C0.794,0.025 0.789,0.027 0.788,0.028C0.788,0.028 0.785,0.03 0.785,0.03L0.781,0.031L0.778,0.026Z" style="fill:rgb(218,218,218);fill-rule:nonzero;"/>
                </g>
                <g transform="matrix(249.99,420.438,420.438,-249.99,250.395,-5.70078)">
                    <path d="M0.865,0.01L0.864,0.003L0.862,-0L0.862,-0.002L0.865,-0.008L0.866,-0.011L0.87,-0.015C0.87,-0.015 0.87,-0.017 0.871,-0.017C0.871,-0.018 0.871,-0.02 0.871,-0.02L0.87,-0.022L0.881,-0.021L0.888,-0.019L0.894,-0.013L0.901,-0.009L0.905,-0.006L0.91,-0.005L0.911,-0.007L0.913,-0.014L0.914,-0.019L0.916,-0.021L0.918,-0.02L0.922,-0.015L0.925,-0.009C0.925,-0.009 0.927,-0.005 0.927,-0.005L0.925,0.003L0.924,0.008L0.921,0.011L0.921,0.014L0.921,0.014C0.921,0.014 0.92,0.016 0.92,0.017C0.92,0.018 0.917,0.019 0.917,0.019C0.917,0.019 0.913,0.021 0.912,0.02C0.911,0.02 0.91,0.018 0.91,0.018L0.908,0.016L0.907,0.017L0.902,0.02C0.901,0.02 0.901,0.02 0.9,0.02C0.9,0.021 0.897,0.019 0.897,0.019L0.893,0.013L0.89,0.01C0.89,0.01 0.889,0.01 0.888,0.01C0.888,0.01 0.886,0.012 0.886,0.012L0.885,0.014L0.877,0.018L0.877,0.018L0.87,0.017L0.868,0.015L0.867,0.013L0.865,0.01Z" style="fill:rgb(218,218,218);fill-rule:nonzero;"/>
                </g>
                <g transform="matrix(249.99,420.437,420.437,-249.99,208.802,19.0318)">
                    <path d="M0.856,0.058L0.857,0.055L0.859,0.046L0.859,0.046L0.863,0.042L0.863,0.035L0.864,0.031L0.866,0.03L0.87,0.029L0.874,0.025L0.876,0.022C0.876,0.022 0.878,0.021 0.879,0.021L0.88,0.02L0.88,0.018L0.88,0.016L0.882,0.011L0.887,-0L0.889,-0.003C0.889,-0.003 0.889,-0.006 0.891,-0.005C0.892,-0.003 0.894,-0.003 0.894,-0.003L0.895,-0.004C0.895,-0.004 0.896,-0.004 0.896,-0.006C0.896,-0.006 0.896,-0.006 0.895,-0.006C0.895,-0.006 0.895,-0.005 0.896,-0.007C0.896,-0.01 0.897,-0.012 0.897,-0.012L0.902,-0.015L0.905,-0.016C0.905,-0.016 0.906,-0.016 0.908,-0.016C0.911,-0.017 0.915,-0.02 0.915,-0.02L0.916,-0.021L0.918,-0.023L0.919,-0.027L0.925,-0.039L0.928,-0.043L0.931,-0.048L0.934,-0.05L0.935,-0.05L0.938,-0.051L0.94,-0.054L0.942,-0.058C0.942,-0.058 0.942,-0.059 0.943,-0.06C0.943,-0.061 0.942,-0.061 0.945,-0.062C0.947,-0.063 0.948,-0.064 0.948,-0.064L0.951,-0.067L0.955,-0.072L0.956,-0.072L0.956,-0.074L0.959,-0.074L0.961,-0.075L0.963,-0.077L0.964,-0.079L0.967,-0.079L0.968,-0.079L0.969,-0.08L0.969,-0.083C0.97,-0.084 0.971,-0.085 0.971,-0.085L0.972,-0.085C0.972,-0.085 0.973,-0.086 0.974,-0.087C0.974,-0.087 0.974,-0.088 0.974,-0.089C0.975,-0.089 0.978,-0.091 0.978,-0.091L0.98,-0.092L0.985,-0.099L0.987,-0.102L0.987,-0.107L0.992,-0.11L0.993,-0.111C0.993,-0.111 0.996,-0.114 0.998,-0.114C1.001,-0.114 1.001,-0.114 1.001,-0.114L1.007,-0.112L1.009,-0.111L1.011,-0.111L1.014,-0.104C1.014,-0.104 1.014,-0.104 1.014,-0.103C1.014,-0.101 1.015,-0.1 1.014,-0.1C1.013,-0.099 1.011,-0.099 1.01,-0.099C1.009,-0.099 1.009,-0.099 1.008,-0.098C1.008,-0.098 1.008,-0.095 1.008,-0.093C1.008,-0.091 1.008,-0.092 1.007,-0.089C1.007,-0.085 1.004,-0.083 1.004,-0.083C1.004,-0.083 1.004,-0.081 1.004,-0.078C1.004,-0.077 1.004,-0.077 1.005,-0.076C1.005,-0.075 1.006,-0.074 1.005,-0.07C1.003,-0.063 1.003,-0.062 1.003,-0.062L0.999,-0.064L0.99,-0.065C0.99,-0.065 0.988,-0.065 0.988,-0.063C0.987,-0.061 0.987,-0.059 0.987,-0.059L0.99,-0.05L0.988,-0.044L0.985,-0.041L0.982,-0.037C0.982,-0.037 0.981,-0.034 0.983,-0.032C0.984,-0.03 0.984,-0.031 0.984,-0.03C0.983,-0.028 0.981,-0.026 0.981,-0.026C0.981,-0.026 0.98,-0.027 0.98,-0.027C0.979,-0.028 0.979,-0.028 0.979,-0.029C0.979,-0.031 0.978,-0.032 0.978,-0.032C0.978,-0.032 0.977,-0.033 0.976,-0.033C0.975,-0.032 0.975,-0.031 0.975,-0.031C0.975,-0.03 0.975,-0.03 0.974,-0.029C0.972,-0.029 0.969,-0.026 0.969,-0.026L0.972,-0.023C0.972,-0.023 0.974,-0.022 0.974,-0.021C0.975,-0.021 0.977,-0.017 0.977,-0.017C0.977,-0.017 0.978,-0.015 0.977,-0.015C0.977,-0.014 0.977,-0.012 0.977,-0.011C0.976,-0.01 0.976,-0.009 0.976,-0.008C0.975,-0.006 0.975,-0.004 0.974,-0.003C0.973,-0.003 0.97,-0.003 0.97,-0.003L0.969,-0.001L0.97,0L0.973,0.004C0.973,0.004 0.976,0.012 0.976,0.014C0.977,0.016 0.979,0.02 0.979,0.023C0.979,0.025 0.98,0.026 0.979,0.028C0.978,0.031 0.977,0.031 0.977,0.033C0.977,0.035 0.977,0.035 0.977,0.036C0.977,0.038 0.976,0.04 0.976,0.04C0.976,0.04 0.976,0.041 0.975,0.041C0.974,0.041 0.973,0.041 0.973,0.041C0.973,0.041 0.971,0.041 0.97,0.042C0.969,0.042 0.969,0.043 0.969,0.043C0.969,0.043 0.967,0.045 0.967,0.045C0.966,0.045 0.961,0.044 0.961,0.044L0.957,0.043L0.958,0.044C0.958,0.044 0.958,0.044 0.958,0.045L0.956,0.044L0.952,0.047L0.951,0.049L0.951,0.053L0.948,0.056L0.944,0.059L0.936,0.068L0.937,0.071L0.936,0.072L0.936,0.075L0.936,0.084L0.935,0.086L0.934,0.095L0.933,0.099L0.934,0.104L0.934,0.108L0.93,0.112L0.926,0.114L0.924,0.113L0.921,0.113L0.921,0.11L0.924,0.107L0.926,0.098C0.926,0.098 0.927,0.095 0.927,0.094C0.927,0.094 0.925,0.09 0.925,0.09L0.922,0.084L0.918,0.079L0.916,0.078L0.914,0.079L0.913,0.085L0.911,0.092L0.91,0.094L0.905,0.092L0.901,0.09L0.894,0.085L0.888,0.08L0.881,0.077L0.87,0.077L0.867,0.073L0.868,0.067L0.868,0.065L0.866,0.065L0.864,0.065L0.863,0.065L0.861,0.064L0.859,0.061C0.859,0.061 0.857,0.06 0.857,0.06L0.856,0.061L0.856,0.06L0.856,0.058Z" style="fill:rgb(218,218,218);fill-rule:nonzero;"/>
                </g>
                <g transform="matrix(249.99,420.437,420.437,-249.99,164.822,45.1819)">
                    <path d="M1.021,-0.004L1.027,-0.006L1.028,-0.007C1.029,-0.006 1.029,-0.005 1.03,-0.004C1.031,-0.003 1.035,0.002 1.035,0.003C1.036,0.004 1.036,0.005 1.036,0.006C1.035,0.006 1.033,0.006 1.033,0.005C1.032,0.004 1.028,0.001 1.028,0.001C1.028,0.001 1.024,-0.001 1.023,-0C1.022,0 1.023,0 1.021,0.001C1.021,0.002 1.019,0.001 1.017,0.001L1.021,-0.004Z" style="fill:rgb(218,218,218);fill-rule:nonzero;"/>
                </g>
                <g transform="matrix(249.99,420.437,420.437,-249.99,194.428,27.5785)">
                    <path d="M0.815,0.091L0.817,0.089L0.818,0.087L0.819,0.082L0.819,0.08L0.827,0.075L0.831,0.073L0.836,0.068C0.836,0.068 0.84,0.065 0.841,0.064C0.842,0.064 0.845,0.062 0.845,0.061C0.846,0.06 0.846,0.057 0.848,0.057C0.849,0.057 0.85,0.056 0.851,0.056C0.851,0.056 0.855,0.054 0.855,0.054L0.857,0.05L0.861,0.048L0.863,0.047L0.864,0.044L0.868,0.041L0.872,0.038L0.872,0.033L0.875,0.031L0.882,0.023C0.882,0.023 0.883,0.024 0.884,0.023C0.886,0.022 0.887,0.019 0.887,0.019L0.888,0.016C0.888,0.016 0.889,0.015 0.893,0.012C0.897,0.01 0.903,0.008 0.903,0.008C0.903,0.008 0.905,0.008 0.907,0.005C0.908,0.003 0.91,0 0.91,0C0.91,0 0.915,-0.013 0.915,-0.013C0.916,-0.013 0.917,-0.014 0.917,-0.015C0.918,-0.015 0.919,-0.019 0.919,-0.019C0.919,-0.019 0.921,-0.021 0.921,-0.022C0.921,-0.022 0.921,-0.024 0.921,-0.025C0.921,-0.025 0.922,-0.026 0.924,-0.027C0.926,-0.029 0.928,-0.03 0.93,-0.031C0.932,-0.032 0.934,-0.032 0.935,-0.032C0.936,-0.032 0.937,-0.036 0.937,-0.036L0.941,-0.043C0.941,-0.043 0.945,-0.044 0.946,-0.044C0.946,-0.043 0.949,-0.041 0.949,-0.041L0.952,-0.04L0.956,-0.044L0.959,-0.05L0.964,-0.053L0.965,-0.053C0.965,-0.053 0.965,-0.055 0.965,-0.056C0.966,-0.056 0.966,-0.057 0.966,-0.057L0.968,-0.059L0.97,-0.062L0.973,-0.065L0.974,-0.066C0.974,-0.066 0.972,-0.068 0.971,-0.068C0.969,-0.067 0.967,-0.067 0.967,-0.067L0.966,-0.07L0.966,-0.072C0.966,-0.072 0.966,-0.074 0.967,-0.075C0.967,-0.075 0.968,-0.076 0.968,-0.075C0.969,-0.074 0.969,-0.072 0.969,-0.072C0.969,-0.072 0.97,-0.071 0.971,-0.071C0.972,-0.07 0.974,-0.069 0.974,-0.069L0.976,-0.074L0.979,-0.077C0.979,-0.077 0.98,-0.08 0.981,-0.081C0.982,-0.081 0.981,-0.083 0.981,-0.083L0.981,-0.085L0.984,-0.087L0.985,-0.086L0.987,-0.083L0.988,-0.082L0.989,-0.085L0.992,-0.086C0.992,-0.086 0.992,-0.085 0.992,-0.084C0.992,-0.082 0.992,-0.08 0.993,-0.082C0.995,-0.083 0.995,-0.086 0.995,-0.087C0.996,-0.087 0.999,-0.088 0.999,-0.088C0.999,-0.088 1.001,-0.088 1.002,-0.087C1.002,-0.085 1.002,-0.083 1.002,-0.083C1.002,-0.083 1.003,-0.082 1.004,-0.083C1.004,-0.084 1.003,-0.091 1.004,-0.091C1.004,-0.091 1.007,-0.091 1.007,-0.091L1.01,-0.089L1.013,-0.089C1.013,-0.089 1.013,-0.091 1.015,-0.091C1.017,-0.09 1.02,-0.088 1.021,-0.087C1.021,-0.087 1.026,-0.082 1.026,-0.082C1.026,-0.082 1.027,-0.079 1.028,-0.077L1.027,-0.077L1.021,-0.075L1.017,-0.07C1.017,-0.07 1.017,-0.07 1.017,-0.07C1.017,-0.07 1.015,-0.074 1.014,-0.072C1.014,-0.071 1.014,-0.071 1.014,-0.07L1.011,-0.077L1.009,-0.077L1.007,-0.078L1.001,-0.08C1.001,-0.08 1.001,-0.08 0.998,-0.08C0.996,-0.08 0.993,-0.077 0.993,-0.077L0.992,-0.076L0.987,-0.073L0.987,-0.068L0.985,-0.065L0.98,-0.058L0.978,-0.057C0.978,-0.057 0.975,-0.055 0.974,-0.055C0.974,-0.054 0.974,-0.053 0.974,-0.052C0.973,-0.052 0.972,-0.051 0.972,-0.051L0.971,-0.05C0.971,-0.05 0.97,-0.05 0.969,-0.049L0.969,-0.045L0.968,-0.045L0.967,-0.045L0.964,-0.044L0.963,-0.043L0.961,-0.041L0.959,-0.04L0.956,-0.04L0.956,-0.038L0.955,-0.037L0.951,-0.033L0.948,-0.03C0.948,-0.03 0.947,-0.029 0.945,-0.028C0.942,-0.027 0.943,-0.027 0.943,-0.026C0.942,-0.025 0.942,-0.024 0.942,-0.024L0.94,-0.02L0.938,-0.017L0.935,-0.016L0.934,-0.016L0.931,-0.014L0.928,-0.009L0.925,-0.005L0.919,0.007L0.918,0.011L0.916,0.013L0.915,0.014C0.915,0.014 0.911,0.017 0.908,0.018C0.906,0.019 0.905,0.018 0.905,0.018L0.902,0.019L0.897,0.022C0.897,0.022 0.896,0.025 0.896,0.027C0.895,0.029 0.895,0.029 0.895,0.028C0.896,0.028 0.896,0.028 0.896,0.029C0.896,0.03 0.895,0.03 0.895,0.03L0.894,0.031C0.894,0.031 0.892,0.031 0.891,0.029C0.889,0.028 0.889,0.031 0.889,0.031L0.887,0.034L0.882,0.045L0.88,0.05L0.88,0.052L0.88,0.054L0.879,0.055C0.878,0.055 0.876,0.056 0.876,0.056L0.874,0.059L0.87,0.063L0.866,0.064L0.864,0.065L0.863,0.069L0.863,0.077L0.859,0.081L0.857,0.078L0.855,0.077L0.853,0.078L0.847,0.081L0.842,0.081C0.842,0.081 0.839,0.082 0.839,0.082C0.838,0.082 0.836,0.084 0.836,0.084L0.833,0.086L0.83,0.088L0.828,0.088L0.825,0.087L0.821,0.088L0.816,0.091L0.815,0.091L0.815,0.091Z" style="fill:rgb(218,218,218);fill-rule:nonzero;"/>
                </g>
                <g transform="matrix(-0.0963242,-0.99535,-0.99535,0.0963242,298.301,178.085)">
                    <rect x="0.162" y="-0.145" width="0.082" height="0.415" style="fill:rgb(218,218,218);stroke:white;stroke-width:1px;"/>
                </g>
                <g transform="matrix(1,0,0,1,268.196,36.1703)">
                    <path d="M0,0.61L-0.504,0.391L-0.369,0C-0.261,0.027 -0.056,0.074 0.033,0.081L0.47,0.111L0,0.61Z" style="fill:rgb(218,218,218);fill-rule:nonzero;stroke:white;stroke-width:1px;"/>
                </g>
                <g transform="matrix(1,0,0,1,298.003,177.533)">
                    <path d="M0,0.273L0.206,0.255L0,0.273L-0.011,0.153L0.185,0L0.402,0.102L0.413,0.237L0,0.273Z" style="fill:rgb(218,218,218);fill-rule:nonzero;stroke:white;stroke-width:1px;"/>
                </g>
                <g transform="matrix(1,0,0,1,298.074,177.788)">
                    <path d="M0,0.068L-0.048,0.078L0.143,0.059L0,0.068ZM-0.064,0.083L-0.07,0.02L0.344,-0.015L0.328,-0.009L0.344,-0.01L0.31,-0.002L0.143,0.059L-0.064,0.083Z" style="fill:rgb(218,218,218);fill-rule:nonzero;stroke:white;stroke-width:1px;"/>
                </g>
                <g transform="matrix(1,0,0,1,268.228,36.5481)">
                    <path d="M0,-0.297C-0.033,-0.296 -0.112,-0.254 -0.142,-0.168L-0.012,-0.124L0,-0.297ZM0.006,0.118C-0.005,0.118 -0.017,0.118 -0.028,0.117L-0.47,0.087L0.009,-0.415L0.157,-0.3C0.297,-0.191 0.263,-0.064 0.249,-0.027C0.223,0.041 0.16,0.118 0.006,0.118" style="fill:rgb(218,218,218);fill-rule:nonzero;stroke:white;stroke-width:1px;"/>
                </g>
                <g transform="matrix(-1,0,0,1,399.236,155.447)">
                    <path d="M-0.596,0.683L0.77,0.683L-1.279,0L-0.596,0.683Z" style="fill:rgb(218,218,218);fill-rule:nonzero;stroke:white;stroke-width:1px;"/>
                </g>
                <g transform="matrix(-0.107073,-0.994251,-0.994251,0.107073,298.302,178.156)">
                    <rect x="0.17" y="-0.154" width="0.064" height="0.415" style="fill:rgb(218,218,218);stroke:white;stroke-width:1px;"/>
                </g>
                <g transform="matrix(1,0,0,1,298.033,178.014)">
                    <path d="M0,0.096L0.207,0.075L0,0.091L0.207,0.075L-0.001,0.087L-0.005,0.038L0.408,0L0.413,0.06L0,0.096Z" style="fill:rgb(218,218,218);fill-rule:nonzero;stroke:white;stroke-width:1px;"/>
                </g>
            </g>
            <g transform="matrix(0.968902,0,0,0.968902,11.6613,35.1765)">
                <g transform="matrix(249.99,420.437,420.437,-249.99,262.723,-13.0294)">
                    <path d="M0.288,0.034L0.207,-0.102C0.209,-0.102 0.21,-0.102 0.21,-0.102C0.21,-0.102 0.213,-0.105 0.214,-0.106C0.214,-0.106 0.214,-0.107 0.214,-0.108C0.214,-0.109 0.214,-0.11 0.214,-0.11L0.213,-0.11L0.21,-0.11L0.208,-0.113C0.208,-0.113 0.202,-0.114 0.204,-0.116C0.206,-0.119 0.205,-0.119 0.206,-0.119C0.208,-0.119 0.208,-0.119 0.209,-0.119C0.21,-0.119 0.213,-0.121 0.213,-0.121L0.214,-0.124L0.216,-0.128L0.217,-0.13L0.219,-0.131C0.219,-0.131 0.221,-0.132 0.222,-0.133C0.223,-0.134 0.224,-0.134 0.225,-0.136C0.226,-0.138 0.227,-0.14 0.227,-0.14C0.227,-0.14 0.229,-0.146 0.232,-0.147C0.234,-0.149 0.237,-0.15 0.238,-0.151C0.238,-0.151 0.24,-0.154 0.24,-0.154C0.24,-0.154 0.242,-0.157 0.244,-0.158C0.246,-0.159 0.247,-0.16 0.249,-0.161C0.251,-0.162 0.253,-0.163 0.254,-0.164C0.255,-0.164 0.257,-0.164 0.258,-0.163C0.259,-0.162 0.26,-0.158 0.261,-0.158C0.262,-0.158 0.265,-0.16 0.265,-0.161C0.265,-0.162 0.263,-0.165 0.264,-0.165C0.266,-0.165 0.266,-0.166 0.267,-0.165C0.268,-0.165 0.27,-0.163 0.27,-0.163L0.272,-0.165L0.275,-0.166C0.275,-0.166 0.275,-0.162 0.28,-0.164C0.284,-0.166 0.286,-0.167 0.287,-0.166C0.289,-0.164 0.29,-0.165 0.292,-0.162C0.294,-0.16 0.295,-0.158 0.297,-0.157C0.299,-0.156 0.301,-0.155 0.302,-0.155C0.304,-0.155 0.303,-0.155 0.305,-0.155C0.307,-0.155 0.305,-0.155 0.307,-0.155C0.309,-0.155 0.309,-0.155 0.31,-0.156L0.317,-0.143L0.319,-0.143L0.338,-0.127L0.348,-0.112L0.347,-0.108L0.352,-0.1L0.364,-0.096L0.375,-0.096L0.378,-0.094L0.379,-0.091L0.379,-0.088L0.378,-0.084L0.379,-0.081L0.383,-0.076L0.387,-0.075L0.406,-0.075L0.413,-0.076L0.418,-0.072L0.422,-0.07L0.423,-0.07C0.422,-0.07 0.421,-0.07 0.42,-0.069C0.418,-0.069 0.416,-0.069 0.415,-0.069C0.414,-0.068 0.411,-0.067 0.411,-0.067L0.411,-0.065C0.411,-0.065 0.412,-0.066 0.411,-0.065C0.41,-0.063 0.409,-0.063 0.409,-0.063C0.409,-0.063 0.408,-0.062 0.408,-0.062C0.408,-0.061 0.408,-0.061 0.408,-0.061C0.408,-0.06 0.407,-0.059 0.406,-0.059C0.406,-0.058 0.405,-0.058 0.406,-0.058C0.407,-0.057 0.407,-0.056 0.407,-0.056L0.408,-0.055L0.406,-0.053C0.406,-0.053 0.406,-0.053 0.407,-0.052C0.408,-0.051 0.408,-0.052 0.408,-0.051C0.409,-0.049 0.409,-0.048 0.409,-0.048C0.409,-0.048 0.409,-0.046 0.409,-0.045C0.409,-0.045 0.408,-0.045 0.408,-0.043C0.408,-0.04 0.407,-0.039 0.407,-0.037C0.408,-0.036 0.412,-0.028 0.412,-0.028C0.412,-0.028 0.414,-0.027 0.415,-0.027C0.415,-0.026 0.416,-0.023 0.416,-0.023L0.418,-0.019C0.418,-0.019 0.417,-0.019 0.419,-0.02C0.42,-0.02 0.422,-0.019 0.422,-0.019L0.426,-0.013L0.428,-0.012L0.431,-0.01L0.434,-0.006L0.432,-0.005C0.432,-0.005 0.43,-0.007 0.429,-0.007C0.428,-0.007 0.426,-0.007 0.425,-0.006C0.424,-0.004 0.423,-0.004 0.423,-0.004L0.419,-0.012C0.419,-0.012 0.417,-0.014 0.416,-0.013C0.415,-0.011 0.415,-0.01 0.415,-0.01L0.416,-0.008L0.422,-0.001C0.422,-0.001 0.425,0.004 0.425,0.007C0.426,0.01 0.425,0.01 0.427,0.011C0.428,0.013 0.429,0.012 0.431,0.013C0.432,0.015 0.432,0.015 0.433,0.016C0.434,0.016 0.434,0.016 0.433,0.016C0.433,0.017 0.433,0.016 0.435,0.017C0.439,0.017 0.439,0.016 0.44,0.017C0.441,0.018 0.442,0.024 0.442,0.024C0.442,0.024 0.442,0.027 0.443,0.027C0.444,0.028 0.447,0.028 0.447,0.028C0.447,0.028 0.45,0.028 0.452,0.028C0.453,0.029 0.453,0.03 0.454,0.029C0.455,0.029 0.455,0.028 0.456,0.027C0.456,0.026 0.458,0.025 0.458,0.025L0.461,0.025C0.461,0.025 0.464,0.025 0.464,0.025C0.465,0.025 0.47,0.023 0.47,0.023C0.47,0.023 0.472,0.024 0.473,0.025C0.473,0.026 0.475,0.026 0.475,0.026C0.475,0.026 0.475,0.025 0.476,0.025C0.478,0.025 0.48,0.026 0.48,0.026C0.481,0.026 0.481,0.026 0.481,0.026C0.481,0.026 0.481,0.027 0.482,0.026C0.483,0.024 0.485,0.024 0.485,0.024L0.487,0.028L0.488,0.03C0.488,0.03 0.488,0.031 0.487,0.032C0.486,0.034 0.484,0.036 0.484,0.036L0.481,0.037C0.481,0.037 0.478,0.037 0.476,0.037C0.473,0.037 0.474,0.037 0.473,0.038C0.472,0.038 0.473,0.039 0.469,0.039C0.466,0.04 0.464,0.04 0.464,0.04L0.459,0.04C0.459,0.04 0.456,0.041 0.455,0.041C0.454,0.042 0.45,0.041 0.45,0.041L0.447,0.043L0.444,0.048L0.442,0.049C0.442,0.049 0.439,0.05 0.438,0.051C0.438,0.053 0.438,0.056 0.438,0.056L0.439,0.061L0.44,0.064C0.44,0.064 0.44,0.064 0.438,0.065C0.437,0.067 0.436,0.069 0.436,0.069C0.436,0.069 0.435,0.071 0.436,0.071C0.436,0.072 0.436,0.072 0.436,0.073C0.436,0.074 0.434,0.075 0.435,0.077C0.435,0.079 0.436,0.082 0.436,0.082L0.437,0.084L0.434,0.085L0.434,0.092C0.434,0.092 0.434,0.094 0.432,0.092C0.429,0.09 0.428,0.089 0.428,0.089C0.428,0.089 0.427,0.09 0.427,0.091C0.428,0.092 0.429,0.094 0.429,0.094L0.428,0.096L0.427,0.096C0.427,0.096 0.424,0.095 0.424,0.094C0.424,0.093 0.422,0.091 0.422,0.091L0.42,0.093L0.42,0.095L0.418,0.095C0.417,0.096 0.417,0.097 0.415,0.097C0.412,0.097 0.41,0.097 0.41,0.097L0.407,0.1C0.407,0.1 0.405,0.102 0.407,0.101C0.409,0.101 0.408,0.101 0.41,0.1C0.413,0.1 0.413,0.099 0.414,0.099C0.416,0.099 0.416,0.099 0.417,0.1C0.419,0.1 0.419,0.101 0.42,0.1L0.422,0.099L0.424,0.098C0.424,0.098 0.423,0.103 0.423,0.104C0.422,0.105 0.421,0.106 0.42,0.106C0.418,0.107 0.417,0.107 0.416,0.107C0.414,0.106 0.413,0.106 0.413,0.106L0.408,0.106L0.407,0.107C0.407,0.107 0.407,0.107 0.408,0.108C0.409,0.109 0.409,0.109 0.411,0.109C0.413,0.108 0.416,0.109 0.416,0.109L0.417,0.11C0.417,0.11 0.417,0.112 0.416,0.113C0.415,0.115 0.413,0.117 0.413,0.117L0.408,0.118L0.407,0.118C0.407,0.118 0.406,0.122 0.407,0.123C0.407,0.124 0.409,0.123 0.409,0.123C0.409,0.123 0.409,0.124 0.409,0.126C0.409,0.127 0.409,0.129 0.409,0.129L0.411,0.134L0.414,0.139C0.414,0.139 0.414,0.14 0.414,0.14C0.414,0.141 0.411,0.141 0.411,0.141L0.406,0.141L0.403,0.143C0.403,0.143 0.403,0.143 0.403,0.145C0.403,0.146 0.403,0.147 0.403,0.149C0.403,0.151 0.402,0.154 0.402,0.155C0.402,0.155 0.402,0.156 0.403,0.157C0.404,0.158 0.405,0.16 0.405,0.161C0.405,0.163 0.405,0.163 0.405,0.163L0.403,0.166L0.403,0.166C0.403,0.166 0.399,0.165 0.398,0.167C0.397,0.168 0.396,0.166 0.395,0.166C0.394,0.165 0.392,0.164 0.392,0.164L0.382,0.164L0.38,0.162L0.381,0.151L0.384,0.141L0.378,0.127L0.378,0.12L0.378,0.116C0.38,0.116 0.382,0.115 0.382,0.115C0.383,0.115 0.382,0.114 0.382,0.114L0.382,0.11C0.382,0.11 0.382,0.108 0.381,0.107C0.38,0.106 0.379,0.102 0.379,0.102L0.38,0.101L0.379,0.09L0.378,0.085C0.378,0.085 0.377,0.08 0.376,0.078C0.375,0.075 0.374,0.074 0.374,0.073C0.373,0.072 0.372,0.072 0.371,0.071C0.37,0.071 0.368,0.07 0.368,0.07L0.365,0.072L0.364,0.074L0.362,0.077C0.362,0.077 0.361,0.079 0.36,0.079C0.359,0.08 0.359,0.079 0.359,0.078C0.358,0.077 0.358,0.075 0.356,0.075C0.354,0.074 0.355,0.076 0.355,0.076L0.353,0.079L0.35,0.081C0.35,0.081 0.349,0.081 0.347,0.081C0.346,0.08 0.345,0.08 0.345,0.08C0.345,0.08 0.344,0.078 0.343,0.076C0.343,0.074 0.343,0.074 0.343,0.074L0.343,0.074C0.343,0.074 0.346,0.073 0.346,0.072C0.346,0.07 0.346,0.07 0.345,0.069C0.345,0.068 0.345,0.066 0.345,0.066L0.348,0.064L0.352,0.063L0.357,0.06C0.357,0.06 0.358,0.059 0.36,0.058C0.361,0.056 0.359,0.055 0.359,0.055C0.359,0.055 0.357,0.051 0.356,0.051C0.356,0.05 0.354,0.049 0.353,0.049C0.352,0.049 0.35,0.051 0.35,0.051L0.344,0.054L0.341,0.057L0.339,0.058L0.338,0.059L0.337,0.058L0.337,0.057C0.337,0.057 0.336,0.056 0.335,0.056C0.335,0.056 0.334,0.057 0.334,0.057L0.333,0.06L0.334,0.065L0.336,0.071L0.337,0.075C0.337,0.075 0.336,0.076 0.335,0.077L0.332,0.069L0.33,0.067C0.33,0.067 0.328,0.066 0.327,0.065C0.326,0.065 0.326,0.065 0.326,0.065C0.326,0.065 0.324,0.062 0.324,0.062C0.323,0.062 0.323,0.063 0.323,0.063L0.32,0.062L0.32,0.06C0.32,0.06 0.321,0.055 0.321,0.055C0.321,0.054 0.32,0.051 0.318,0.047C0.318,0.047 0.315,0.045 0.313,0.044C0.311,0.042 0.312,0.045 0.312,0.045L0.311,0.046L0.313,0.06L0.311,0.063L0.311,0.062L0.308,0.056L0.303,0.049L0.299,0.046L0.296,0.042L0.293,0.04L0.29,0.04L0.288,0.034Z" style="fill:rgb(0,205,0);fill-rule:nonzero;"/>
                </g>
                <g transform="matrix(249.99,420.437,420.437,-249.99,221.99,11.19)">
                    <path d="M0.31,-0.059L0.315,-0.062L0.32,-0.064C0.32,-0.064 0.327,-0.067 0.329,-0.067C0.331,-0.066 0.333,-0.064 0.334,-0.064C0.334,-0.064 0.339,-0.062 0.34,-0.062C0.342,-0.062 0.344,-0.062 0.344,-0.062C0.345,-0.062 0.348,-0.064 0.348,-0.064C0.348,-0.064 0.348,-0.064 0.347,-0.065C0.346,-0.066 0.345,-0.067 0.345,-0.067L0.344,-0.071C0.344,-0.071 0.343,-0.072 0.344,-0.072C0.346,-0.072 0.347,-0.072 0.348,-0.071C0.348,-0.071 0.351,-0.07 0.351,-0.07C0.351,-0.07 0.354,-0.069 0.355,-0.068C0.355,-0.067 0.356,-0.066 0.356,-0.066C0.356,-0.066 0.355,-0.065 0.357,-0.064C0.358,-0.063 0.358,-0.063 0.359,-0.063C0.361,-0.062 0.362,-0.061 0.363,-0.061C0.364,-0.061 0.365,-0.06 0.366,-0.061C0.367,-0.061 0.369,-0.063 0.369,-0.063C0.369,-0.063 0.368,-0.063 0.371,-0.065C0.374,-0.067 0.374,-0.067 0.377,-0.066C0.381,-0.064 0.388,-0.063 0.389,-0.062C0.39,-0.062 0.393,-0.063 0.393,-0.061C0.393,-0.06 0.392,-0.057 0.392,-0.057C0.392,-0.057 0.388,-0.057 0.387,-0.057C0.387,-0.057 0.381,-0.059 0.381,-0.059C0.381,-0.059 0.381,-0.06 0.38,-0.06L0.377,-0.058L0.372,-0.057C0.372,-0.057 0.37,-0.056 0.368,-0.055C0.366,-0.054 0.363,-0.053 0.363,-0.053L0.359,-0.056C0.359,-0.056 0.358,-0.056 0.355,-0.056C0.352,-0.055 0.351,-0.056 0.35,-0.055C0.349,-0.055 0.348,-0.054 0.347,-0.054C0.345,-0.054 0.345,-0.054 0.342,-0.054C0.339,-0.055 0.337,-0.055 0.335,-0.055C0.333,-0.056 0.334,-0.057 0.331,-0.056C0.328,-0.054 0.328,-0.054 0.327,-0.053C0.325,-0.052 0.323,-0.048 0.323,-0.048C0.323,-0.048 0.324,-0.048 0.325,-0.048C0.326,-0.047 0.328,-0.045 0.328,-0.044C0.328,-0.044 0.329,-0.043 0.331,-0.043C0.332,-0.044 0.333,-0.044 0.333,-0.044C0.333,-0.044 0.33,-0.045 0.335,-0.045C0.34,-0.046 0.343,-0.046 0.343,-0.046C0.343,-0.046 0.351,-0.048 0.352,-0.047C0.354,-0.046 0.355,-0.046 0.358,-0.045C0.36,-0.044 0.361,-0.042 0.361,-0.044C0.361,-0.046 0.361,-0.045 0.361,-0.046C0.362,-0.047 0.364,-0.047 0.365,-0.046C0.365,-0.046 0.366,-0.045 0.367,-0.044C0.368,-0.043 0.368,-0.043 0.368,-0.043C0.368,-0.043 0.368,-0.043 0.369,-0.043C0.369,-0.042 0.369,-0.044 0.371,-0.042L0.373,-0.04C0.374,-0.041 0.374,-0.04 0.375,-0.042C0.375,-0.043 0.375,-0.045 0.375,-0.045C0.376,-0.046 0.378,-0.047 0.378,-0.047C0.378,-0.047 0.379,-0.046 0.38,-0.045C0.38,-0.044 0.381,-0.041 0.383,-0.041C0.384,-0.041 0.387,-0.04 0.387,-0.04C0.388,-0.04 0.391,-0.041 0.392,-0.041C0.393,-0.041 0.395,-0.04 0.395,-0.04C0.396,-0.04 0.4,-0.04 0.4,-0.04C0.401,-0.04 0.405,-0.04 0.406,-0.04C0.407,-0.039 0.413,-0.037 0.414,-0.037C0.414,-0.037 0.417,-0.038 0.418,-0.039C0.419,-0.04 0.421,-0.043 0.421,-0.044C0.421,-0.044 0.422,-0.047 0.422,-0.047C0.422,-0.047 0.426,-0.048 0.426,-0.049C0.426,-0.049 0.428,-0.05 0.429,-0.049C0.43,-0.049 0.439,-0.045 0.439,-0.045C0.439,-0.045 0.441,-0.043 0.441,-0.042C0.442,-0.042 0.446,-0.042 0.446,-0.042L0.45,-0.039L0.453,-0.036L0.459,-0.032C0.459,-0.032 0.465,-0.026 0.465,-0.026C0.466,-0.026 0.467,-0.028 0.471,-0.024C0.476,-0.02 0.481,-0.017 0.482,-0.016C0.483,-0.016 0.482,-0.019 0.485,-0.015C0.488,-0.01 0.49,-0.009 0.49,-0.007C0.491,-0.004 0.492,-0.003 0.492,-0.001C0.492,0.001 0.492,0.003 0.492,0.004C0.492,0.004 0.499,0.011 0.499,0.011L0.507,0.013C0.507,0.013 0.508,0.013 0.509,0.013L0.509,0.013L0.508,0.015L0.505,0.022C0.505,0.022 0.508,0.026 0.508,0.027C0.508,0.028 0.508,0.03 0.508,0.03L0.506,0.031L0.504,0.03L0.497,0.027L0.496,0.028C0.496,0.028 0.496,0.028 0.496,0.029C0.497,0.03 0.496,0.031 0.496,0.031L0.495,0.031L0.494,0.033L0.5,0.043L0.5,0.053C0.499,0.053 0.499,0.053 0.5,0.054C0.5,0.054 0.501,0.055 0.501,0.055L0.502,0.057L0.501,0.059L0.498,0.062L0.495,0.061C0.495,0.061 0.495,0.061 0.495,0.061C0.494,0.062 0.494,0.063 0.494,0.063C0.494,0.063 0.493,0.064 0.492,0.065C0.49,0.066 0.489,0.065 0.489,0.067C0.49,0.069 0.489,0.07 0.489,0.07L0.485,0.072C0.485,0.072 0.483,0.072 0.482,0.07C0.481,0.068 0.479,0.063 0.479,0.063L0.479,0.059L0.477,0.053C0.477,0.053 0.476,0.051 0.477,0.051C0.477,0.051 0.478,0.05 0.478,0.05C0.479,0.05 0.48,0.049 0.48,0.049L0.484,0.045L0.486,0.043L0.487,0.041L0.487,0.038L0.489,0.037L0.491,0.036C0.491,0.036 0.491,0.035 0.49,0.033C0.489,0.03 0.489,0.028 0.489,0.028L0.487,0.029L0.486,0.028L0.484,0.026L0.483,0.024L0.481,0.016C0.481,0.016 0.481,0.015 0.48,0.014C0.479,0.013 0.478,0.013 0.478,0.013L0.474,0.009L0.469,0.006C0.469,0.006 0.468,0.005 0.466,0.005C0.464,0.005 0.462,0.005 0.46,0.005C0.459,0.006 0.46,0.007 0.458,0.007C0.456,0.007 0.454,0.006 0.453,0.005C0.453,0.005 0.452,0.004 0.452,0.004C0.452,0.004 0.45,0.006 0.45,0.007C0.45,0.009 0.449,0.009 0.449,0.009L0.447,0.01L0.444,0.011L0.44,0.011C0.44,0.011 0.435,0.012 0.434,0.013C0.434,0.014 0.432,0.016 0.432,0.016C0.432,0.016 0.428,0.016 0.428,0.016L0.425,0.017L0.422,0.02L0.424,0.021C0.424,0.021 0.426,0.022 0.426,0.022C0.426,0.023 0.425,0.024 0.425,0.024C0.425,0.024 0.424,0.026 0.424,0.026C0.424,0.027 0.423,0.027 0.423,0.027L0.422,0.027L0.418,0.025L0.413,0.021L0.406,0.022L0.387,0.022L0.383,0.021L0.379,0.016L0.378,0.012L0.379,0.009L0.379,0.005L0.378,0.003L0.375,0.001L0.364,0.001L0.352,-0.003L0.347,-0.011L0.348,-0.015L0.338,-0.03L0.319,-0.046L0.317,-0.046L0.31,-0.059Z" style="fill:rgb(0,205,0);fill-rule:nonzero;"/>
                </g>
                <g transform="matrix(249.991,420.439,420.439,-249.991,235.522,3.14356)">
                    <path d="M0.936,0.004L0.944,-0.005L0.948,-0.007L0.951,-0.01L0.951,-0.014L0.952,-0.016L0.956,-0.019L0.958,-0.019C0.958,-0.019 0.958,-0.018 0.959,-0.017C0.961,-0.015 0.964,-0.012 0.964,-0.012C0.964,-0.012 0.969,-0.007 0.97,-0.005C0.971,-0.004 0.974,-0 0.974,0.004C0.974,0.008 0.975,0.007 0.973,0.011C0.972,0.015 0.971,0.016 0.97,0.019C0.967,0.019 0.96,0.017 0.959,0.017C0.958,0.017 0.952,0.015 0.952,0.015L0.946,0.011L0.942,0.01L0.938,0.008L0.937,0.008L0.936,0.004Z" style="fill:rgb(0,205,0);fill-rule:nonzero;"/>
                </g>
            </g>
        </g>
    </g>
</svg>
